<svg xmlns="http://www.w3.org/2000/svg" xmlns:xlink="http://www.w3.org/1999/xlink" viewBox="0 0 494.02 121.9"><defs><style>.cls-1{fill:#00e47c;}.cls-2{opacity:0.65;}.cls-3{fill:#00110e;}.cls-4{fill:url(#linear-gradient);}</style><linearGradient id="linear-gradient" x1="239.27" y1="97.69" x2="494.02" y2="97.69" gradientUnits="userSpaceOnUse"><stop offset="0" stop-color="#00e47c"/><stop offset="1" stop-opacity="0.3"/></linearGradient></defs><g id="Layer_2" data-name="Layer 2"><g id="Layer_6" data-name="Layer 6"><polygon class="cls-1" points="239.69 98.72 96.59 98.72 0 2.12 2.12 0 97.84 95.72 239.69 95.72 239.69 98.72"/><g class="cls-2"><rect class="cls-3" x="240.05" y="74.27" width="253.19" height="46.84" rx="23.42"/></g><path class="cls-4" d="M469.82,121.9H263.47a24.21,24.21,0,0,1,0-48.41H469.82a24.21,24.21,0,0,1,0,48.41ZM263.47,75.06a22.63,22.63,0,0,0,0,45.26H469.82a22.63,22.63,0,0,0,0-45.26Z"/><path class="cls-1" d="M286.49,104.06a7.52,7.52,0,0,1-2.73-3.13,11.67,11.67,0,0,1,0-9.27,7.26,7.26,0,0,1,6.8-4.25,7.88,7.88,0,0,1,3.26.67A6.86,6.86,0,0,1,296.33,90a8,8,0,0,1,1.52,3l-2.34.41a5.73,5.73,0,0,0-1.79-3,4.87,4.87,0,0,0-3.16-1,4.76,4.76,0,0,0-4.73,3.22,11.2,11.2,0,0,0,0,7.29,5.08,5.08,0,0,0,1.8,2.38,5,5,0,0,0,2.93.84q3.85,0,5-4.17l2.34.42a8.33,8.33,0,0,1-1.52,3.1,7,7,0,0,1-2.51,2,7.66,7.66,0,0,1-3.27.68A7.46,7.46,0,0,1,286.49,104.06Z"/><path class="cls-1" d="M302.41,104.64a1.94,1.94,0,0,1-1-.93,3.7,3.7,0,0,1-.33-1.7V86.93h2.11v14.88a1.87,1.87,0,0,0,.13.75.75.75,0,0,0,.41.39,2.4,2.4,0,0,0,.8.11h.89v1.87h-1.1A4.93,4.93,0,0,1,302.41,104.64Z"/><path class="cls-1" d="M308.26,89.81a1.43,1.43,0,0,1-.54-.55,1.64,1.64,0,0,1,0-1.57,1.5,1.5,0,0,1,.54-.55A1.55,1.55,0,0,1,309,87a1.62,1.62,0,0,1,.79.19,1.53,1.53,0,0,1,.55.55,1.64,1.64,0,0,1,0,1.57,1.45,1.45,0,0,1-.55.55,1.64,1.64,0,0,1-1.57,0Zm-.28,3h2.12v12.14H308Z"/><path class="cls-1" d="M316.07,104.38a5.51,5.51,0,0,1-2.06-2.24,7.1,7.1,0,0,1-.73-3.3,7,7,0,0,1,.73-3.28,5.46,5.46,0,0,1,2.06-2.22,5.88,5.88,0,0,1,3.08-.79,6,6,0,0,1,2.43.48,5.16,5.16,0,0,1,1.88,1.38,5.56,5.56,0,0,1,1.13,2.14l-2.18.38a3.55,3.55,0,0,0-1.18-1.88,3.34,3.34,0,0,0-2.08-.63,3.5,3.5,0,0,0-2,.54,3.3,3.3,0,0,0-1.2,1.53,7.13,7.13,0,0,0,0,4.71,3.28,3.28,0,0,0,1.2,1.54,3.38,3.38,0,0,0,2,.55,3.3,3.3,0,0,0,2.09-.65,3.65,3.65,0,0,0,1.18-2l2.17.39a6,6,0,0,1-1.12,2.21,5.15,5.15,0,0,1-1.88,1.42,6.11,6.11,0,0,1-2.44.48A5.88,5.88,0,0,1,316.07,104.38Z"/><path class="cls-1" d="M329.82,98.93h-.19v6h-2.11v-18h2.11V98.07h.19l4.5-5.28H337l-5,5.63,5.48,6.51h-2.78Z"/><path class="cls-1" d="M356.82,89.62h-5.53v15.31H349V89.62h-5.52v-2h13.3Z"/><path class="cls-1" d="M361.58,104.38a5.41,5.41,0,0,1-2.07-2.22,7.71,7.71,0,0,1,0-6.59,5.38,5.38,0,0,1,2.07-2.23,6.46,6.46,0,0,1,6.19,0,5.34,5.34,0,0,1,2.08,2.23,7.71,7.71,0,0,1,0,6.59,5.37,5.37,0,0,1-2.08,2.22,6.46,6.46,0,0,1-6.19,0Zm5.12-1.62a3.25,3.25,0,0,0,1.21-1.55,7.1,7.1,0,0,0,0-4.7A3.23,3.23,0,0,0,366.7,95a4,4,0,0,0-4,0,3.25,3.25,0,0,0-1.22,1.54,7.1,7.1,0,0,0,0,4.7,3.27,3.27,0,0,0,1.22,1.55,4,4,0,0,0,4,0Z"/><path class="cls-1" d="M379.1,87.65h10.36v2h-8.11v5.52h7.15v2h-7.15V103h8.35v2H379.1Z"/><path class="cls-1" d="M395.22,98.59l-3.84-5.8H394L397,97.72h.2l3.07-4.93h2.47L399,98.41l4.12,6.52H400.6l-3.38-5.65H397l-3.49,5.65h-2.42Z"/><path class="cls-1" d="M405.33,92.79h2v2.45h.19a5.51,5.51,0,0,1,1.68-2,3.94,3.94,0,0,1,2.27-.65,4.85,4.85,0,0,1,2.72.8,5.4,5.4,0,0,1,1.89,2.23,8.25,8.25,0,0,1,0,6.56,5.34,5.34,0,0,1-1.89,2.24,4.85,4.85,0,0,1-2.73.79,3.83,3.83,0,0,1-2.19-.61,5.27,5.27,0,0,1-1.63-1.92h-.19v7.09h-2.11Zm7.55,10a3.36,3.36,0,0,0,1.2-1.55,7.28,7.28,0,0,0,0-4.7,3.33,3.33,0,0,0-1.2-1.54,3.84,3.84,0,0,0-4,0,3.21,3.21,0,0,0-1.2,1.54,7.1,7.1,0,0,0,0,4.7,3.24,3.24,0,0,0,1.2,1.55,3.9,3.9,0,0,0,4,0Z"/><path class="cls-1" d="M421.29,104.64a1.94,1.94,0,0,1-1-.93,3.7,3.7,0,0,1-.33-1.7V86.93h2.12v14.88a1.89,1.89,0,0,0,.12.75.77.77,0,0,0,.42.39,2.33,2.33,0,0,0,.79.11h.9v1.87h-1.11A4.93,4.93,0,0,1,421.29,104.64Z"/><path class="cls-1" d="M429.12,104.38a5.44,5.44,0,0,1-2.08-2.22,7.71,7.71,0,0,1,0-6.59,5.4,5.4,0,0,1,2.08-2.23,6.46,6.46,0,0,1,6.19,0,5.47,5.47,0,0,1,2.08,2.23,7.8,7.8,0,0,1,0,6.59,5.5,5.5,0,0,1-2.08,2.22,6.46,6.46,0,0,1-6.19,0Zm5.12-1.62a3.32,3.32,0,0,0,1.21-1.55,7.28,7.28,0,0,0,0-4.7A3.29,3.29,0,0,0,434.24,95a4,4,0,0,0-4,0A3.23,3.23,0,0,0,429,96.51a6.94,6.94,0,0,0,0,4.7,3.25,3.25,0,0,0,1.21,1.55,4,4,0,0,0,4,0Z"/><path class="cls-1" d="M441.3,92.79h2v2.66h.2a8.23,8.23,0,0,1,1-1.69,3.1,3.1,0,0,1,1.09-.92,3.2,3.2,0,0,1,1.39-.29l.46,0a1.6,1.6,0,0,1,.43.1V95a4.51,4.51,0,0,0-.59-.11,5.79,5.79,0,0,0-.72,0,3.52,3.52,0,0,0-1.69.37,2.6,2.6,0,0,0-1.06,1.07,3.67,3.67,0,0,0-.36,1.69v7H441.3Z"/><path class="cls-1" d="M452.65,104.38a5.47,5.47,0,0,1-2.07-2.24,7.76,7.76,0,0,1,0-6.57,5.4,5.4,0,0,1,2.05-2.23,6.2,6.2,0,0,1,6,0,5.15,5.15,0,0,1,2,2.19,7.14,7.14,0,0,1,.71,3.23v.77h-9.23a5.14,5.14,0,0,0,.51,2,3,3,0,0,0,1.2,1.31,3.57,3.57,0,0,0,1.88.47,3.71,3.71,0,0,0,1.71-.38,3.06,3.06,0,0,0,1.17-1.09l2.3.21a5.11,5.11,0,0,1-1.21,1.65,5.4,5.4,0,0,1-1.77,1.08,6.31,6.31,0,0,1-2.2.37A5.91,5.91,0,0,1,452.65,104.38Zm6.47-6.57a4.14,4.14,0,0,0-1-2.51,3.14,3.14,0,0,0-2.39-.9,3.29,3.29,0,0,0-2.44.9,4.1,4.1,0,0,0-1.07,2.51Z"/></g></g></svg>