<svg xmlns="http://www.w3.org/2000/svg" viewBox="0 0 626.11 407.68"><defs><style>.cls-1{fill:#00e47c;fill-rule:evenodd;}</style></defs><g id="Layer_2" data-name="Layer 2"><g id="Layer_1-2" data-name="Layer 1"><path class="cls-1" d="M605.8,112.18v1.18l-.6,1.22-.44-.25-1.08,1.19-.17.94.08.34-.1.1.25,1.24-.17.08-.79-1.77-1-1.3-.46-.53.29-.6,0-.8-.17.42-.67.57-.21-.31.3-1.47-.38-.23.25-1.13,0-.68-.71-.45-1.72-3.44h-.46l0,.3-.38-.14-1.05.56-2-.83-.21-.34-.63,0-1-.84-.46-1.47.21,1.74.76,1-.17.53-1.13.38.71.26.76,1.1-.12,1.35-1.07.37-.9,1.51-.85-.54.52-.87.46-.17.25-.45-.8.34-.69,1-.73-.94.57-1.68v-.31l-.4-.44.25.47-.44.62-.1,1-.32,0,.59,1.17-.08.88-.55.28-.08-.14-.74-.44-.48.19-.25.74h-.65l-.23-.48-.44-1-.53.17-.16-1.56-.38-.83,0-1.36-1.6-2-.28-1.55.2-.9-.51-1.26V100.4l-1.36-1.54L580,98.35,578.78,97l0-2,1-.22.48-1.33.8-.43.67.21.73-.5-.32-1.3.24-.61L581,90.76l-1,.36-2.6-.83.16-1.18L578.66,88l.52-1.29-.56-.44,0-.68.48,0,.32-.72.44.58.76.79,0,.54.79.9,1.17.14.56-.25-.8-.43.24-.58.48,0,.79.61.56.51,1.08.32.08-.36.56-.11.76,1.23.24,1.18.16.61.44,1.08,0,.72,1,.37,1-.08,1.16.47h1.44l2.24-.14,1.68.18,1.87-.07L599,93l.39.26.64-.15,1,.9.56.22-.6,1-.2,1.22L600,98.14l-.67.32v.65l-.45.5-.61-.1-.4-.36-1.07.67-.18.65-.44.34v.6l.56,1.34.56.46.22.51.88.76.86,1,.57,0,.1-.79-.36-.26.58-.76,0-.54.32-.45-.34-.47.5-.36.7.43,1-.07.28.47.49.7.36,1.41v1l.4.76.32,2,.44,1.33.4.77.23.34.05.54.27.4.21.19Zm-7.51-4-.36-.34-.47.24.16,1,.53-.23.14-.71Zm-2.89-.26.56,1-.12.83.48.65.76-1.3-.28-.79-1.4-.9a1.75,1.75,0,0,1,0,.46Zm-1.12-.71-1,.39,0,.43.76,1.48,1,0-.12-1.48Zm-61-40.48-.88,2.67v1.66l-1.28,1.73.33,1.25,1.2.11,1,.71,1,0,1,.61,1.95.5,2.56,1.52,1.68,1.87,2.16.43,1,.67h1.53l1.84,1.08,2.8-.21,1,.79,2.88-.72,2.64.57.33,1.3,1.44,1.16,3,.72,1-.51,1.92-.07,4.81,1.58,1.2-.57,2.08,1,3.44-.65.4-2.31-1-1.94.48-2.38-.36-1.07-1-.07-1.52.44-.56-.22-1.4.54-1-.22-1.12-1.37-1.64-.57-.32-1.19L566.47,75l-2.08-.22-1,1-1.2.32-.68.54L560,76l-.92.18L558.39,75l.32-2-1.4-.18-1.76.43-1.36-1.08L554,70.75l-1.16-.64h-1.15l-.4-.44-.65.54-.11,1.48-.56.22-.48-1.09-1-1-.44-.65-1.2-.54-1.28,0L544,67l-.84-.54-1.32-.07-.56-.5-2-.69-1.36.11-.68.9-.6-.25-1.11,0-.4-.54-1.64-.75-.24.29Zm-63.17,36.7.06-1.29,1.16-.68.76-.18.47-1.26.85.18.92-.44,3.79.19,2.2-.72.44-.44,1.28-.35-.44.72.52.57L483.4,99l1-.33-.44-.46.16-.72-1.24-3.17-1.08-1.29.28-.69-.76-.58-1.08.08-1.8-1L478.24,89l.08-1.23-.8-1.54-1,0-.61.29-1.32-.4-.92,0V84.86l.89-2,.83-.25,1.48-1.91.25-.86,1-.46.72-.48,1.2.48.24,1,.8.14,2.08-1,2.92-.14,1.76-1.77,1.08-3L491.47,73l.64-1.08.24-1.62,1.24-1.58,1.8-.79.6-1.23,0-.93-.72-.5,1.6-1.59.88-.61.16-1.19.28-2.48-.56-1.84-.32-.43L499,55.64l1-.32,1-.62.68.11,1.11-1.11-.14-1.08-1.4-.31-1.34.47-1.69-.32-.68-1.28-1.94-.73L493.63,50l-2-1.63-.28-1.48-.87-3.38-1-1.47,0-1.55.92-.36.17-1,1.55-.9L492,37l-1.6-.39-.31-1-1.48-.79-1.52-1.15L486,32.36l-1.12.36-.8.29-.8-.69-.24-2,2.68-1.62-.37-.85-1.59.29-1.28-.65-1.84.87-1.36,1.08h-1.52l-.88,1.23-1,.94,2.4,3.16L478.4,37l-2.64,3.1,1.36,1.15v1.37l-1.44,1.94H473.6l-2-.71-1.36.79.62,1.29,1.16.57.68,1.37-.24.87-1.32.64-1.24.11-.44.72-.16,1.76-.4,1.16,0,.68-.4.43.42,2.22L467.67,58l-1.06-1.22H466l-.08.68-1.36-.07-.64-.39-1.32.1-.36.65-2.08,1.44.92.25-.64.72-2,.83-.64-.39-1.36.25-.4.75-.24.8-1,.32-.72.83.08,1.36.4,1.62-.08,1,.44,1-.24.93-2.2.83-1.92,0-1.76.21-2.95.15-2,.46-.68.51-1.76-.08-1.86.44-6.41.15-7.59-1.94v0l2.87,3.46.64,1.15,1.44,1.37,1.4.68.48.5,1.84.15,1,.36.16.54,1.52.14,0,1.69.4,1.15.08,1.37.28.9L439,83.6l1.44.86.16,2-.8.68-1.44-.5-2.68.72-.56.54-1.68.61-.56,1,.28.86-.84,1,.52,1.22-.24,1.76,0,.81h.64l0,.72.5.19,1.6-.87,1.26-.08.08.46.46-.15.8-.61,1.22.08.54.15.92-.23.68.08H442l.12-.53.46-.53,1.09.64h.76l.13-.41.58.11.34.57h.88l.76.49H448l1.26-1.1h1.47l.88.23.83-.49h.89l.17-.38.41.3,1.6.19,1.34-.45,1.64,0,1.17.83.49,1.11-.19.83.19.17-.3.09,0,.36.93,0,1.63-.66,0,1,1.23,1.26.3,1.77.21.19,0,.68-.42.26.34.11h.46l.38,1.06,1-.07,1.59,0,2,.87-.13.61Zm13-79-.24.92-.89.72-1.92.8-.2.5-1,.65h-1.4l-1-.36V27l-.84-1-.08-1.94-.15-1,.07-1.26-.4-.94-.92,0-.31-.94.24-1.15V18l-1-.47-1-.61h-1.32l-.56.9-.2,1.44-.68.54-.48.68.28,1.37-.76,1.08-1.2.11-.16-.54h-.56l-.44.54-1.2.28-.08.69.52.47,0,.79-1.92-.15-.6-.72-.56-.35-.64.53-.64.11-.6.79-1.19.61-1.84.37-.84-.33-1.2-1.4-1-.07-.92.75-.76,0-.68-.9-1.2-.51-1.8.43-.4-.35-1.2.25-1.12-.61L445,24l-1.67,1.1-.46,0-1.44.34-.6.4-.57.22-.08.63.52.36v1l-1.28,1.23,0,1.25L439,31.92l-.88.19-.84.61-.2.5-2.16.4-1.72.82.28.69-.72.57-.16.65-.8.83-1.6.22-.56.54-.47-.4-.32-.72L427.64,36h-1l-.72.61H425l-.88-.61-1.24-.29-.55.18.07.11-.08,1.41.12.68-.4.75.72.87-.28.25.08.65-1.44.86-1.2.29.48.68.92.65-1,1.33.28.22.36,1.8v1l1.88.39h.48L421.6,49.7l-.28,1.3,1.48,2.59.8,2.34-.4.68.56.9.16,1.84,4.83.07.88,1.72-.12,1.37.56,2-.44.61-4.14,5.09,7.59,1.94,6.41-.15,1.86-.44,1.76.08.68-.51,2-.46,2.95-.15,1.76-.21,1.92,0,2.2-.83.24-.93-.44-1,.08-1-.4-1.62L454,63.56l.72-.83,1-.32.24-.8.4-.75,1.36-.25.64.39,2-.83.64-.72-.92-.25,2.08-1.44.36-.65,1.32-.1.64.39,1.36.07.08-.68h.64L467.67,58l1.2-1.59-.42-2.22.4-.43,0-.68.4-1.16.16-1.76.44-.72,1.24-.11,1.32-.64.24-.87L472,46.46l-1.16-.57-.62-1.29,1.36-.79,2,.71h2.08l1.44-1.94V41.21l-1.36-1.15L478.4,37l-.16-2.17-2.4-3.16,1-.94.88-1.23h1.52l1.36-1.08,1.84-.87,1.28.65,5.53-1,2.48-.94,1.12-1.73-.88-.22L493.69,23l-.26-.84h-2.36l-.72.79-2.07.21-.28-1-1.6.32-2.52,1.44ZM329.7,13.61l-.6.47-.56,1.33-1.56.11,0,.5.6,1,.52,1.87-.16.94,0,1.37,1.28.14.36.61-.72,1.51.08,1.44-.12.58,1.48.5,1.2,1.94.52,1.16-.29.86.13,0,1,.07.52,1.26,0,.9.52,1,.84.18.56.82.52,1.16,1,.5.82.1,1.88,1,.82.18,1.2-.11.76.35.48.29-.34.21-1.08.33-.66.12.12,1.29.44.25V41.5l-.68.39-.72-.14-.2,1.55-.6.46,0,1.84-.32.68.36.51-.44.54V48l.76.07.6.68,1.2.22.24.72,1.24.94-.52,1,.32.36-.2.61,1.16.79.56-.35,1-.08,4.12,2.45.59-.22.69.43,1,1.77,1,.5,1.16,2.23-1.16.94-.07,1.48.43,1.33h1.76L355,67l1,.61,1.2.43.41.31.5-.2,0,.31.84,1,.67,0,.63-.49,0-1-.84-.6.67.08.76,0,.29-.3-.21.56-.17.57,1.26.53.51-.19.54.91.55,0,1.72-1.28.58.26L367,69.9l.13.95,2,2.19.17,1.55.58.34.85-.12.58.91h-.42l-.37-.23-.26.27,1,.75.5-.15.21.79,1.68,3.37,1.13.6,2-.19,1.43.42.58.56,1.76.08.26.34,1,.07.17.46-.67.52L383,84.94l1.3.26.88.53.92.11,1.93,1.55.55-.26,1.34-.19,1.85.41L394,88.67l1.93-1.43L398.23,86l0-.57.12.45,1.14,0,1.47-1,1.13-.3,1.89.23v.34l.5,0,.13.53,1,1.28.59,1.81,1.09,1.89.09,1.33.62.37.22.53,2.93,0,1.22,0,1,.72,1.3-1,.46,0,1.47,1.25,3.06-.2,1.72.69,2.44.07,1,.31.51-.16.79.61.34,0,.25-.87.71-.11.55.86,1.38.46,1.85.6.84-.41.25-.42h.32l0-.81.24-1.76-.52-1.22.84-1-.28-.86.56-1,1.68-.61.56-.54,2.68-.72,1.44.5.8-.68-.16-2L439,83.6l-1.36.07-.28-.9-.08-1.37-.4-1.15,0-1.69-1.52-.14-.16-.54-1-.36-1.84-.15-.48-.5-1.4-.68L429,74.82l-.64-1.15-2.87-3.46,4.15-5.11.44-.61-.56-2,.12-1.37-.88-1.72-4.83-.07-.16-1.84-.56-.9.4-.68-.8-2.34L421.32,51l.28-1.3,1.72-1.91h-.48L421,47.4v-1l-.36-1.8-.28-.22,1-1.33-.92-.65-.48-.68,1.2-.29,1.44-.86-.08-.65.28-.25-.72-.87.4-.75-.12-.68.08-1.41-.52-.9,0-.75-.48-1.23.4-.75L421,31l-1.4-.53-2.44-.19-2.24-2.8L412.85,27l-1.17.25-.51-.36-.32-1.48-1.16-.18-2.24-.83-.88.54-.88,0-3.24-1.84-1.72-.43-2-1.44-1.23,0-1.08-.4-1.12.26-.4,1.18L392.82,22l-2.36.39-2.32,1.77-.92.07-.72.83L386,26.35l-2.72.14-1.15.6.54,1.3.84,1.11-.4,1.3-1.24-.21-3.19-.26-2.76.33-3.68.93h-1.64l-3.35-.86L366,30.62l-2.79-1-.84-.93L362,27.6l-.8,0L360,26.81l-1.32.43-.92-.29h-1.32l-1.08-1-.84-.11-.36-.47.24-1.15L354.19,23l-.8-1v-.31l-.48.28-.92-.18-.36-.57-.91-.4L348.88,19l1.8-1.11-1.28-.72-.3-.5.68-.51-.74-.67-.48-.74-.53-.11-.1-.29h-.58l-1,.7-.8.15-.7.84-.66.26-.94,1.19-.58,0-.38.48-.18.58-1,.39-.78-.24-1.22.21h0l-.31.79-1.56-.79-1.45,0-1.44-.67-.18-1L331.71,16l.09-.72-.4-.89-.69,0-.79-.82Z"/><path class="cls-1" d="M231.49,114l66.31-.46-.07.43-.12.45.29.38-.15.26.21.23,0,.21.23.28.37,1.38,1.07,1.15v.48h-.28l-.14-.33-.44-.47-.19.16.15.91,1.34,3.59.3,2-.33,1.86.75,2.14,1,1.71.92.19,2.43,1.47v.94l1.13,0,1.22.56v.69h.37l-.73,1-.91.44-.94.16-.41.7-1.24-.12-.67.51-1.1.22-.07.5.24.48-.14.56H300.4l-.64.36v1l-.53,1.16.51.31.29.43-.4.51L299,144l-.46,2.51-.88,1.22-.08.82-.58.58-.09,1.2.67,2.1.24,1,.28.1-.3.36-.6,1.53v1.71l-1.51,2.31-.61,1.59-.48-.06-1.06.2-.16.87-1.34,2,0,.78-1.57,1-.68,1.56-1.09,3.73-.61-.18-.48.06-.19.67-1.19,1.3-.41,1,.38.58,0,1.07-.89,1.26-.42,1.39.13,2-.19,2.35-.74.51-.35.55-.68-.11-.57-.38-1.06.23-1.22-.23-.06,1.1-.54.29-.87,1.1.38.66,1,.32,2.3,0,.55.61,1,.9.19.69.39.23,1.09,1.73,1,.41,0,.4.41.38h1.06l.67.78.46.78.92.89.26,1.85.55.58.35,1.75-1.86,1.87L288,202.37l-.55-.19-1,.9-.53.65-.43.16-.64.77h0l-1.34.79-.63.81-1.23.53-1.28-.34-2,.1-1.23.48h-.9l-.43.19-.69-.14-.7.57v.82h-.64l-1.28-.38-.1-.77-1-.24-.86.24-1.43-.48-1.07-.39-.7.58-.05.72.25.41-.09.2-.41-.23-1.37,0-.22,0-.12-.56-.3-.72-.34-.4-.42-.83-.59-.49-1.46-.43-.3-.43-.62-.65-.68-1.27-.44-.25-1.24-.05-.6.65-.48.54-1.17.28h-.46l-.15-.27-.73,0h-1.32l-.68.32-.42.64-.62.16-1.1-.38-1.12-.85-.64-.61-.63-.17-.59-.63-.19-.79-.17-.06v-.2l-.43-.58-1-.58-.62-.41-.2-1.53.16-.48-.85-.6-1.86-.42-.49-.48,0-1-.29-.39-1.15-.31-.55-.53-.07-1.45-.43-.62-1.82-1-.4.05L237,190l-.42.19-1-.24-1.09-.86.43-.44.13-.41.72-.52.24-.73-.45-.53-.94-.07-1.09-.48-.29-.67-.86-.46-.93-.05-1.26-.48-1-.67-.16-.92.4-.67-.53-.39-1.69-.05-.4.48-1.41,0-.78-.6,0-1.52.37-1,.38-.46.26-1.06-.4-.74-1-2-1.47-1.78-.21-.5-1.17-.9.29-.35v-.68l-.59-.6.11-.24V169l.48-.72-.53-.77-2.08-.47-.21-1-.06-1.29-.53-.86.43-.63-.75-.48.64-.38v-.72l-.64-.15-1.33.87-.75-.68v-1.1l1.76-1.67.59-.82-.11-1-1-.53.21-.67,1.12-.62.59-1.06-.64-.58-.05-.71,1-.87.59,0,1.81-2.16.64-1.15-.59-.67v-1.25l1-.72h1.38l1,.53,1-.58.85-.29-.39-19.74,0,0v-1.81l5.32-.46Zm60.18,84.19.59.92,1.1-.2.85.13v3l1,1,1.07.19,1.25-.39,1.39.32,2.7-.15,1,.58,2.32,2,1.36.84.91.94.88.26h2l1.2.49,1.5-.19,1,.31h.81l1.09-.07,1.47-2.05.53-.65,1.18-.41.85.05.59-.34,2.59-.31.8.36.67,1.08.93.48,2.09-.31,1.4,0,.2,0,.48-.71,1.77-.79,1.64-.21,1.46-.72,1.08-.57.46-1,1.39-.65,1-.07,1.06-.61,3.45-.12,3.39.09,17.35-15.48-7.15.09L340,180.75l-1.39-1.06-2-.39-.74-1.53.21-1.44-1.49-.68-1-2.69-.33-1.89.35-.54-1-.52-1.5.24-1.3.77-2.09.07-.53-.58.88-1.12.11-.92.53-.89-.21-1.3.48-.89.35-1.2,1.06-.29-1.52-1.78-.8,0-.35-.6-.13-1-1.07-1.37-1-.19-1.58-1.4-1.31-.77-.37-.46-1.07-.09-.16-.34-1.6-.21-.43-.78L317,153.35l-.91-.17-1-.82-1.13-.21-.9.16-.16.29-1.76-1.27-1,0-.41.39-.77-.63-1.07.12-1,.8H305.9l-2.19-.72-.32-.51-.61-.36-1.5,2.84-.88.05-.4.6-1.17,0-.74-.28-.3.36-.6,1.53v1.71l-1.51,2.31-.61,1.59-.48-.06-1.06.2-.16.87-1.34,2,0,.78-1.57,1-.68,1.56-1.09,3.73-.61-.18-.48.06-.19.67-1.19,1.3-.41,1,.38.58,0,1.07-.89,1.26-.42,1.39.13,2-.19,2.35-.74.51-.35.55-.68-.11-.57-.38-1.06.23-1.22-.23-.06,1.1-.54.29-.87,1.1.38.66,1,.32,2.3,0,.55.61,1,.9.19.69.39.23,1.09,1.73,1,.41,0,.4.41.38h1.06l.67.78.46.78.92.89.26,1.85.55.58.35,1.75Zm39.92-34.62.46-.45.93-.24,1-1-.3-.12-.18-.28-.44.36-.61-.29h-.58l-.51-1,.21-.3-.79-.92-.69-.17-.92-2.07-.38-.47,0,.3h-.46l-.8-.88-1.15-.44-.79-1.26-1.89-1.88-.33-.53-1.55-.32-.52-.58-1-1-.71.22-.35-.18-.82.09-.54.34-.65-.59-.93-1.25.38-.38-1-1.28-.42.14-.08,1,.25,0,.08,1.39-1-.22-.3-1.55-.46-1.06-.75-.23V146l-.3-1.32-.41-.11L311.5,141l-2.31-5.48-1.3-1.24h-.05l-.73,1-.91.44-.94.16-.41.7-1.24-.12-.67.51-1.1.22-.07.5.24.48-.14.56H300.4l-.64.36v1l-.53,1.16.51.31.29.43-.4.51L299,144l-.46,2.51-.88,1.22-.08.82-.58.58-.09,1.2.67,2.1.24,1,1,.38,1.17,0,.4-.6.88-.05,1.5-2.84.61.36.32.51,2.19.72H307l1-.8,1.07-.12.77.63.41-.39,1,0,1.76,1.27.16-.29.9-.16,1.13.21,1,.82.91.17,1.95,1.56.43.78,1.6.21.16.34,1.07.09.37.46,1.31.77,1.58,1.4,1,.19,1.07,1.37.13,1,.35.6.8,0,1.52,1.78Zm2.11,6.74,1.29-2.14-.18-.35h-1.45l-.86.32-.38-.07-.6-.68h1.19l.57-.75.77,0,1-1,.56-.2-.19-1.55.17-.47h-.36L334,162.25l0-.37,0,0-1,1-.93.24-.46.45-2.29.61-.35,1.2-.48.89.21,1.3-.53.89-.11.92-.88,1.12.53.58,2.09-.07,1.3-.77,1.5-.24,1,.52Zm-4.89,35.75-5.15,4.41-.11,19.77,3.91,3.2.06-.24,4.58-4.56.5-1.05,1.18-1,1.13-.3.46-.76.55-.19,3.11-3.09.83-.23,3.78-3.59,2-1.36,1.55-1,1.85-.31,2.64-2,6.17-4.9,2.94-3.22,1.68-1.55.37-1.05,3.78-4.61.08-.83,2-2.53.12-1.59,3.15-5.4.71-.57-.54-.71.08-.57,1.23-1.2.45.07.79-.88,1.31-2.48,1.91-2.41-.08-1.31.35-.52.21-1.19-.44-.66.82-1.24.48-.12H380l.11.19.36-.17-.32-.6-.36-.08.09.24-.74.1.4-.79-.17-.84-.5-.61.5-1,.58-.44,0-.3-.72,0-.27-.44.32-.5.06-.8.35-.8.58-.76-.25-.14-.64,0-1.42-.44-.67-.42.07.22-.47-.05-.68.6.14.12-.43.72-.19-.13-1,.88-1.7.19-.16.41-.47-.38-1.63.21-1,.73-2.7.45h-.57l-.54-.28-1.74.11-1.55.69-1.5-.06-.84.25-1.09-.43-1.08.18L354.68,172l-1.61.17-1.11-.47-.52.16-1.51.06-.34-.28-.54,0L347.19,173l-.9,0-1.44.78-.51.55-1.61.19-1.36-.3L340,173.08l-.54-.13-.4-.75-3.37-3.34-.35-.06-.34-.62-1.29,2.14-.48.75.33,1.89,1,2.69,1.49.68-.21,1.44.74,1.53,2,.39,1.39,1.06,16.33,4.51,7.15-.09-17.35,15.48-3.39-.09-3.45.12-1.06.61-1,.07-1.39.65-.46,1-1.08.57-1.46.72-1.64.21-1.77.79L329,206l-.2,0Zm-45,19.91.22-1.39,1.06-.91.64-1.15.91-.77.42-.91.59-.53-.05-.43h1.92l.47-1.2V218l1.28-1.34.16-1.06-.37-1.06-.8-.62.48-.62-.64-.43-.75-.29-.69-1.54-1.28-1.1v-1l-.37-1.1-.74-.15.1-.86-.53-.29-.38-1.29-.53-.58-1.39.82-.63.81-1.23.53-1.28-.34-2,.1-1.23.48h-.9l-.43.19-.69-.14-.7.57v.82h-.64l-1.28-.38-.1-.77-1-.24-.86.24-1.43-.48-1.07-.39-.7.58-.05.72.25.41-.09.2h0l-.28.92-.56.66v1.4l-.32,1.71-.12,1.27.62.39.54.65.42.83-.1.56-2.85,3.41-1.76,1.77-.48.75-2.16,3.49-.4.62,0,1.29-.15,1.83-.73,1.8.16,1.16-.27.23.29.11.91-.17.91-.65.61.27.46.38h.8l.4-.34,0-.7.91-.14.16.22.32-.39.51.1.48-.43,4.66,0h.13l4.12-.1,7.65-.37Zm-62.84-55.66-1.44.58-.69-.39h-1.33l-1,.63-1.39.72-.21.67,0,.67-.64.24-1,1.44-.59.05-.43-.24-.79.82,0,.76-.8.48-.21.87.16.72-.27.72-.91.43-1.06.72-2.08.24-1.55.19-1.44-.19-.9-.34-1.28.15-.85-.19-.75.43-.11.81.91,1.06H201l.21.67-1.6,1-.74.77h-1.44l-3.31.67-1.38.86-1.55.58-1.44,1-1,.14-.48-.43-.37-1.15-.59-.48-.64.57v1l-.69,1.16-1.49,0-.91.19h-1.07l-.21-1-.6-.6,0,.32-1,1.28-.8.29-.51,1-1,1.71-.62,1.23-1.09,1.37-.62.21-.5.68.15,1.06.46,1.32-.24,1.23.46,1.3.13,1.11v2l.53.36,1.6.7.88,1,.35,1.06,1.36,1.8.83,1.47.67.58,1.76,1.22.16,1,0,.79.23.34.14.11,2.48-3.73,1.39-1.2,1-.19.46-.53,2.37-.87.88.08.59-.36h1.66l.37.4,1,.51.54-.19.65-.16.06-.8.28-.72.36-.43-.87-1V204l.76,0,.43-.36v-.54l.52-.57.12-.69.4-.33h.68l.8-.71,1,.1.16-.46h.56l.84.57.64.07,1.6,1.23.84.28,1.48,1.13.32.28,1.23-.07,1.12.57,1.37.08.76.12.7-.28h.72l1,.34,1.32.24.52.27,1.31-.25.2-.4-.58-.43-.1-.56.88-.81.78-.91,1.12,0,1,.2.62.61.72-.27,2.39-.25.42-.47.86-.31,2.3-.9.74,0,.12.37.4.07.24.57.48,0,.68-.43,1.35,0,.76-.15h.64l.72-1-.24-.34.06-.39.84-.05.52.45,1.18.17.64-.06.54.27.82.12.79.48,2.08,0,.32.16,1.72-.7,1.26.1,1,.54.21.07v-.2l-.43-.58-1-.58-.62-.41-.2-1.53.16-.48-.85-.6-1.86-.42-.49-.48,0-1-.29-.39-1.15-.31-.55-.53-.07-1.45-.43-.62-1.82-1-.4.05L237,190l-.42.19-1-.24-1.09-.86.43-.44.13-.41.72-.52.24-.73-.45-.53-.94-.07-1.09-.48-.29-.67-.86-.46-.93-.05-1.26-.48-1-.67-.16-.92.4-.67-.53-.39-1.69-.05-.4.48-1.41,0-.78-.6,0-1.52.37-1,.38-.46.26-1.06-.4-.74-1-2-1.47-1.78-.21-.5-1.17-.9.29-.35v-.68l-.59-.6Zm5.71-44.24v-1.81l5.32-.46-2.39-49.4L229,71.87l-.69-1.34.64-1.59.8-1.73v-1.1l-.64-1.34.48-2.12.36-.82-.51-1.4-.79-.79-1-.15-1,.15-3.73-.41-.76-.61-1.47-.11-2-.49-.42-.57.42-.15,0-.61-2.35-1.16h-1.22l-1.93-.46-.46-.23-.58.46-1.18-.53h-.42l-1.72.79-2.73.23-2.35,1L202.37,58,202,59.34l-.71.49-.17,2.57,1,1.4.67,2-.46,1.13-1.45,1.32-.18.47-1.89,1.43-1.15.4-2.42-.87-2.14-1.58-1.67-1.23-2.57-1.19-4.11-1.54L183,64l-.59.3h-2.14l-1.85-.83-1.72-3,.05-1.54-1.39-1.67-3.57-.45-1.89-1.1-3.06-.07L165.11,55l-3.9.65-2.73-.53-1-.91L156.16,54l-.19.42.38,1.92.42.39-1.23,1.68-3.19,1.82v.67l-1,1.15L150.05,62l-.79.53-.06.53-.21.67.55,1.58.13,1.2-.32.31,0,.43-.33.4-.62.94-.85.48-.34.27h-.68l-.48.41,0,1.68.54.34.69,1.2v3.28l.16,1.81-.08.52.24,2.56.69,1.46-.53,2.75-.19.46.54,1.2.21,1.74-.53.69-1.26.82-.43.58-.42.29.8.82,1.31,1.51,1,2,.35.26.34,1.28-.21.62.13,1.4.67.7.24.89.59.53h2.24l2.06.14,1,.58.74,1.08,1.1,2,.59.48.65.75.7.59,9.73,2.18.9.86,11.23-4.2,44.72,20.46v0ZM146.57,69.32l-3.44-10L141.74,58l-.88-.2-.53-.5L139,56.78l-.4-1.22-1.57-1.23-.56-.17-.7-.94.24-.57-.66-1.31-.38-.21.66-2.41,1.25-1.35.83-.21.51-.63.61-.41.35-1.76.53-.53-.74-.67.48-.72.45-.39-.08-.31-.72-.75-.35-1.35,1-2.28,0-1.59.22-1.52-.22-.58.18-.7h0l1.43-1.13,2-.91,1.47-.26.58.72,0-.64,1.22-.23.71.57-.12.86.54.19.84,1.7.55.31.67-.65,2-1.62.51.34v1l-1.1,1.47-.08.91-1.34.83-.25,1.32,1.34,1.63,1.63.57,0,1.62.42.26.21.72-.59.57.47.56-.42.46L151,45.55l-2.77,1.74-.54,1.47.88,1.44,1.76,1.1.8-.16.25.76.76.3.41-.3-.08-.38.34-.22.84.41,0,.72.17.52,1.63.91.66.12-.19.42.38,1.92.42.39-1.23,1.68-3.19,1.82v.67l-1,1.15L150.05,62l-.79.53-.06.53-.21.67.55,1.58.13,1.2-.32.31,0,.43-.33.4-.62.94-.85.48-.34.27Zm5.79-18.25.71-.53-.42-.45h-1l-.17.37Zm7.69,55.71-.7-.59-.65-.75-.59-.48-1.1-2-.74-1.08-1-.58-2.06-.14H151l-.59-.53-.24-.89-.67-.7-.13-1.4.21-.62-.34-1.28-.35-.26-1-2-1.31-1.51-.8-.82.42-.29.43-.58,1.26-.82.53-.69L148.18,87l-.54-1.2.19-.46.53-2.75-.69-1.46-.24-2.56.08-.52-.16-1.81V73l-.69-1.2-.54-.34,0-1.68.48-.41-3.44-10L141.74,58l-.88-.2-.53-.5L139,56.78l-.4-1.22-1.57-1.23-.56-.17-.7-.94.24-.57-.66-1.31-.38-.21.66-2.41,1.25-1.35.83-.21.51-.63.61-.41.35-1.76.53-.53-.74-.67.48-.72.45-.39-.08-.31-.72-.75-.35-1.35,1-2.28,0-1.59.22-1.52-.22-.58.18-.7-.29-.3-1.55.27-.84-.15-2.35.6-1.22-.94-1.51-.5,0,.53-1,.83-1.89-.18-.13-.8-.79-.53-1.31.27-.08.68-1.13.19-.5.75-.72-.26h-.88l-1.13.79h-1.26l-.71-1-1.52-.07-.67-.19-1.47.22L115.81,33l-.55.12-1-.31-.72.15L113,34h-1.18l-1-.37-1.42,1.24-.84,0-1.3-.65-1.18.38-2.14.07-1.21-.14L100,36.34l-1.56.19-.77,0-1.32.74-.06.77-.69.81H95l-.35-.31-.8,0-.59.38-.31.4-1.57.09-1.31.6-.7.57-.18.6-1.07,1-1.69.49-1.5.06.37.52.3.6.64.72.13.92.19.36.09,1.61,0,2,.22.79L87.27,54l.8,1.47.27,1,.85.22.56.46.62,0,.48.34-.62,1.37.11.32-.75,1H83.05l-1.32.24-1.34,1.92-1.17.92-.53,1.15,0,1.58-.48,1-3.84,2.4-5.91,3.07L64,74.75l-2.19.43-2.11,0-1,.24H57L54.11,76l-1.63,1-1.07,1.28-2.56,1.63-.09,4.26,0,0,0,1.4,0,0v0L68.86,97.75v0l36.34,21.69.64,2.4,1.17,1,2-.1,1.6.48,1,1.11,1.33.34,1.07.86-.06.77-.53,1.53.37.77,1.34.43,2.55-.28,2.06-.59h0l8.48-1.83,6.87-5.66L160,106.77ZM48.76,84.18l.09-4.26,2.56-1.63L52.48,77l1.63-1L57,75.47h1.69l1-.24,2.11,0L64,74.75l4.52-2.4,5.91-3.07,3.84-2.4.48-1,0-1.58.53-1.15,1.17-.92,1.34-1.92,1.32-.24h6.54l.75-1-.11-.32.62-1.37-.48-.34-.62,0-.56-.46-.85-.22-.27-1L87.27,54l-.45-3.69-.22-.79,0-2-.09-1.61-.19-.36-.13-.92-.64-.72-.3-.6-.37-.52-.79,0L81,42.62,80.3,42,80,41l-.39-.11h0l-1,1-1.78.32L75,41.77l-.92-.06-1.17.55-1.67.22L70,42.26l-1.52-1.47-.61-.42-.25-.79V39l.21-.28-.34-.38-1.06.34-.47.38L65.12,39l-1.05,1.06-.23,2.71-1.2,1.42-.25,2.05-.73,1.3-2.53,2.11-.58,0-1.22.77-2,.62-1.53,1.47h-.58L51,53.89l-1.36.39-.77,1.07L46.31,57l.87,1.73L47,59.93l-2.23,1.81-1.43,2.65-.08,1.09.92,1.67L43.51,69l.46.41.63.72-.38,1.43-3.48,3.55-.38,1.4-1.59,1.55L37,78.21l-3.86,3.14-5.42.9L26.4,83.93l22.34.25v0Zm0,1.42,0-1.42L26.4,83.93l-2.15,2.71v2l-1,0-3.86,1.81-.37,1-1.51.8L18,93.51,14.56,98l-.21,1.43-2.6,2.19L11,102l-1.38,2.72.12.76-2.22,2.64-.09.49.68.46-1,.34-1.76,2.9-.67.15-.8.76.08,1.24-.58,1.06.11,1.65L25.69,117l-.22-9.13.71-1.35,1.2-.77,1.36-.17h2l.24-13.18,17.59.28.21-7ZM3.48,117.34l-.55,1.1L3,120.36l1.22-1.24.46,1.21.46.22.67-.49,1.6,2.16-.72.64.42,1-.37,1.7H6l-.63.42L7,128.22l1.1,5.18L7.68,137l-1.35,1.7-.88,3.1-.3,2,.94-.65h.8l1.12-1,3-.43,2.88-1h1l2.61.77,1.44.28,1.17,1.4v.48l.75.28,1-.33.37.24.9-.1.48.39.22,1.24,1.17.91v1.16l1.23.19.31,1,1,.34,1.5.81.26.77h0l1.33-.92,1.7-.1.59-1.39-.06-.67v-1.87l1.71-.53,1.33,0,.16,1.25,1,1.63.59.34,1.33-2.36,2.82-1.1,1.28.43.06,1.44.64.63,1-1h.69l.64.77.58.24,19.74-.08,1.82-4.52-1.71-1L62.07,97.84l6.73-.1,0,0v0L48.73,85.59l-.21,7-17.59-.28-.24,13.18h-2l-1.36.17-1.2.77-.71,1.35.22,9.13-22.22.18Zm26.44,33.89v.91l.37.72-.58,2,.16.62,1.33,1.15.59,1.25.69.53.58-.1.64.48.27.67.75.77-.06.57-.32.58.06.77,1.44.72-.06.86-.27.63v0l.64.29,1.22-.48.75.29,1.22.77h1.39l1.12-.72.74,0,1.07-1.39,1.07,0,1.49.58.48-.39,1-.28.11.52,1.22.91.59,1.06-.37,1.39.64.39,1.22.28v.58l-1,1.24-.53,1.3,1-.09.58-.68.69,0v1l.43.62V172l1.44.05.53.53,0,.68,1.61-.82.7-.05,1.33.57,2.24.15.48-.39.05-.43,1.81-.33,1.5.19-.32.33.42.58,1.76.48,1-1.39.69-.43.32-1.21-.48-.76,0-1,1.07-.19-.16-1.44L68,166.2l1-.72,1.38-1,1.6-2.64,1.18-1.44,0-.72,1.28-2,.74-.24.22-.67,1.65-.05.64.15,2.88-.77.48-1,3-1.82,4.27-2.11,1.38-1.06,1.71-.86,2.67-.38,1.38-.15,1.57.46,1,.07.42.38.16-.29,1.28.29,3.84-.33,1.28.09,1.44-.62H110l1.6-1,1.65-.1,1.65-.77,2.77-1.39.38-1.1.16-1.72.9-.49.37-4.51.27-9.64h0l-2.06.59-2.55.28-1.34-.43-.37-.77.53-1.53.06-.77-1.07-.86-1.33-.34-1-1.11-1.6-.48-2,.1-1.17-1-.64-2.4L68.8,97.74l-6.73.1,4.27,44.09,1.71,1-1.82,4.52-19.74.08-.58-.24-.64-.77h-.69l-1,1-.64-.63-.06-1.44L41.64,145l-2.82,1.1-1.33,2.36-.59-.34-1-1.63-.16-1.25-1.33,0-1.71.53v1.87l.06.67-.59,1.39-1.7.1-1.33.92Zm37.79,20.39,1.6,1.15,2.08,1h.8l.64.38h.85l1.17.48.59.77,1.76.82,1.33-.24,1-.66.72,0,.8.5,1.2.18,0-1.5-.64-1.38-.59-.44-.37-1.58.16-1.11,1.92-.09h4.1l.48-.19H90.2l2.08-.29,1.28-.05,1.28-.53.42.11h0l.43-.08,5.76,1.31.22-.46,1.44-.29-.22-1.05.91-.58-.11-.91,1.12-.48.59.24,1.76-.82,1-.05,1.22-1.29v-.81l-.37,0-1.22-1.44.64-.77-.11-1-.43-.38-.16-.62-.58-.29-2.4,1.15-1.92-1.34-.11-2-5.27-3.17v-1.43l.69-1,.21-1.39.21-.39-.42-.38-1-.07-1.57-.46-1.38.15-2.67.38-1.71.86-1.38,1.06-4.27,2.11-3,1.82-.48,1-2.88.77-.64-.15-1.65.05-.22.67-.74.24-1.28,2,0,.72L72,161.88l-1.6,2.64-1.38,1-1,.72.38.91.16,1.44-1.07.19,0,1,.48.76-.32,1.21ZM4.91,145.45l-1.43,2.34L0,150.66,1.89,152l1.21,1.92,1.05.16v1l-.46.08,1.39.79-.76.5.15.41,2.53.05.59-.32h1l2-1.37,1.52-.57.94.26,1.41.05,1.74,1h1l2.43,1.35.48-.07.43.62-.38.65-1.22,0-1.82-.68-1.41-.43-1.18,0-1.31-.77-.56.2-.83.6-.32-.22-.77-.17-1.2.73-1,.24-1,1H4.17l-.56.51v1.13l-.55.53.3.38,1.25-.61,1.89.61-1.21.68L4.7,162l-.93-.23.42.34,0,1,1.36.4,1.81-.82,3.73.29,1-1.2,2-.77,5,.1,1.39.34v-.06l1.07-.19,3.52,0,2.24,1,1,.67,1.7-.09,1.76.67.91-.49,1.06.06.54.52,1.17.1.1.77.27-.63.06-.86-1.44-.72-.06-.77.32-.58.06-.57-.75-.77-.27-.67-.64-.48-.58.1-.69-.53-.59-1.25-1.33-1.15-.16-.62.58-2-.37-.72v-.91l-.75-.58-.26-.77-1.5-.81-1-.34-.31-1-1.23-.19v-1.16l-1.17-.91-.22-1.24-.48-.39-.9.1-.37-.24-1,.33-.75-.28v-.48l-1.17-1.4-1.44-.28-2.61-.77h-1l-2.88,1-3,.43-1.12,1h-.8l-.94.65Zm-1.3,14,.56-.51H7.56l1-1,1-.24,1.2-.73.77.17.32.22.83-.6.56-.2,1.31.77,1.18,0,1.41.43,1.82.68,1.22,0,.38-.65-.43-.62-.48.07L17.23,156h-1l-1.74-1-1.41-.05-.94-.26-1.52.57-2,1.37h-1l-.59.32-2.53-.05.27.76,1.43.64,1.26-.3-.84.71-1.51,0-1.14-1.29-1,.88.63.71Zm.54,3.63.46.75,1.85.08.76.07-1,.68,1,.91,1.13.07.29.54.63.11,1.43-.45,1.34-.27,1.51.75-.46.31-2.77,0,.34.42.92.11.5.49-.33.46.63,0-1.3,1.29,2.35-.23-.09.83.25.31,1.33-.36.66-1.19,1.12-.24,1.49-.77,1.92-.33.91-.63.05-.91-.59-.58-.05-1.67.27-.77-.21-1.53L19.1,161l-5-.1-2,.77-1,1.2-3.73-.29-1.81.82L4.15,163ZM15,170l.88.87-.5,1.85,1.26,1.55,1.25.07.85.3.5-.64.92.38-.42.38,0,.79.5.45,1.18,0,.42,1.52,1.51.71.81.59.88,0,1.7-.82v-.67l1.55-1.2.85-.86,1.44-.53h4.69L36,176l.63.86L38,179.06l-.16.81,1.06.91v.77l-.74.29-.11.86.64.25-.21.81-.38,6.62-2.37,1.44.17.08-.42.72.93.38,1.42,1.81.84,0,2.07,1.26,8.5-2.53-.16-.47.8-.76.91-1.88-.37-.95.26-.58,1-.29,1.49-2.93.16-1.05-.37-.43-1.07-1.05v-.68l.7-.33.9.09.11-.67-.69-1-.59-.38L52,178.43l.32-.72-.21-2.3-.43-.43v-.77l2.08-.72.46-.23,0-.68-.53-.53L52.25,172v-.57l-.43-.62v-1l-.69,0-.58.68-1,.09.53-1.3,1-1.24v-.58l-1.22-.28-.64-.39.37-1.39-.59-1.06-1.22-.91-.11-.52-1,.28-.48.39-1.49-.58-1.07,0-1.07,1.39-.74,0-1.12.72H39.35l-1.22-.77-.75-.29-1.22.48-.64-.29-.11-.81-1.17-.1L33.7,163l-1.06-.06-.91.49L30,162.75l-1.7.09-1-.67-2.24-1-3.52,0-1.07.19.22,1.59-.27.77.05,1.67.59.58-.05.91-.91.63-1.92.33-1.49.77-1.12.24L14.92,170Zm12.67,19.3-.47,0-.76-.42-.14-.45.23-.37.6.12.45.47.09.68Zm-3.48-10.39-.59.95-.08.75.79.38-.75,1.28.42.8,1.05.15.57,1.58v1.13l1.23,1.2,1.11-.37,0,.22-.46.87.69.6.8.81-.32.6,1.26.28,3,1.39H35l.67.33,2.37-1.44.38-6.62.21-.81L38,182.7l.11-.86.74-.29v-.77l-1.06-.91.16-.81-1.34-2.21L36,176l-.75-1.3H30.56l-1.44.53-.85.86-1.55,1.2V178l-1.7.82-.88,0ZM55.8,204.26l1.93-1.52H59l.42-.49L63.19,201l0-.49,2.1-.27,7.34,0,2.77-.79,2.56,1.1.25-1.25,1-.22.81,1.31.22-.36,1.12-.07.8-.12.08-1.42-.54-.82-1.28-.34-.13-1.2-.8-1.88-.64-.62,0-.44.49-.29-.07-2.24.53-.67L80,188.7l.42-.77-.1-1,1.76-2.35,1.11-.62v-1l.48-1.11-.48-1.25-.79-.67v-.86L81.89,178l.42-1.58V176l-1.2-.18-.8-.5-.72,0-1,.66-1.33.24-1.76-.82-.59-.77-1.17-.48h-.85l-.64-.38h-.8l-2.08-1-1.6-1.15-.85.53-1,1.39-1.76-.48-.42-.58.32-.33-1.5-.19-1.81.33-.05.43-.48.39L57.9,173l-1.33-.57-.7.05-2.07,1.05-2.08.72V175l.43.43.21,2.3-.32.72.21,1.78.59.38.69,1-.11.67-.9-.09-.7.33v.68l1.07,1.05.37.43-.16,1.05-1.49,2.93-1,.29-.26.58.37.95-.91,1.88-.8.76.32,1,.91.29.43-.24h1l.63.72.7-.14.69.29.37,1,.8.48.75.05.32,1-.75.53.38.62-.48.62-.27.87.37.77-.48,1.15.54.82,0,1.17Zm24.59-3.48,3,.38,2.18.86L90.34,200l3.35-.26,2.9-2.2,2.64-1.13,3-.36-.61-.83-.58-.53-.59-.22L100,193.1l-.38-1.18.3-1.35.08-.65.58-1-.18-2.94-.38-.75.14-1.71-.43-.72.45-.63-.16-1-.5-.38.08-.73.42-.74-.08-1.71-.48-.15-.56-.38,0-1.81.32-1.37L98,173.14l-.48-.63-1.2-1-.13-.74-.48-.46L95.26,169l-.42-.11-1.28.53-1.28.05-2.08.29H87.32l-.48.19h-4.1l-1.92.09-.16,1.11.37,1.58.59.44.64,1.38,0,1.88L81.89,178l.48,1.06v.86l.79.67.48,1.25L83.16,183v1l-1.11.62-1.76,2.35.1,1-.42.77-.06,1.15-.53.67.07,2.24-.49.29,0,.44.64.62.8,1.88.13,1.2,1.28.34.54.82-.08,1.42-.8.12-1.12.07-.22.36Zm21-30.57-5.76-1.31-.43.08.46,1.34.48.46.13.74,1.2,1,.48.63,1.18.77-.32,1.37,0,1.81.56.38.48.15.08,1.71-.42.74-.08.73.5.38.16,1-.45.63.43.72L100,185.2l.38.75.18,2.94-.58,1-.08.65-.3,1.35.38,1.18.45,1.32.59.22.58.53.61.83.47-.05,3-1.67.57.07.2-.95-.75-1.15,0-1.39-.38-1.25.16-6,.06-.87.58-.67v-1.2l-.42-.77,0-1.39-.48-2.11L104.11,174l-.58-.29-.7-.72-1.38-.52-.32-1.59Zm7.89-6.5v.81l-1.22,1.29-1,.05-1.76.82-.59-.24-1.12.48.11.91-.91.58.22,1.05-1.44.29-.53,1.1.32,1.59,1.38.52.7.72.58.29,1.12,2.64.48,2.11,0,1.39.42.77v1.2l-.58.67-.06.87-.16,6,.38,1.25,0,1.39.75,1.15-.2.95,2,.24,3.82-1.17.23,0-.22-1,.24-2.53-.16-.81,0-.73-.27-2.12.22-.74-.06-.58-.21-.33.13-.39-.13-.84-.08-.37.11-1.08.1-.72-.08-.92.43-.57.88-.32.64-.09.54-.39.48-.91.77-1.23.29-.72.78-.63.75.05.29-.46-1.17-1.15.07-.46.43-.63,1.2-.07.22-.57-.56-1.79,0-1.23-1.52-1.08-.24-.8.24-1,.13-.09-1.2-1.43-1.28-.24-1-1.24-1.81-1.35-.48.91.16.58-1,.29ZM175.63,108l.63.63,2.67,6.92-.11,1.34-.32.58,3.73,4-.1,1.83-.86.77-1.49,9.41.21,7.3-9.22,8.48-.27.55-.59.2h-.64l-.13.62.41,6.3.74.25,1.44,1.68.8,1.21.06.05,2.74,1.25,1.26,1.06.29,1.44.43.48.24.87.64,1.37,0,.67-.27.51,0,.44.61.65-.42,1.3-.67.62.05,1,1,1.28.86.36.34,1.08,1.47,1.11.45.17-.61.39-.75-.12-.61-.32-1.2-.12-.72.1-.83-.12-1,.14-.56-.19-.93,0-.86,0-.05.89-.32.48v.85l.21.55.56.36.16.56.93.31,2.09,1.59,2,2,.85.65.83,1.27,1,1.33,0,.88.6.6.21,1h1.07l.91-.19,1.49,0,.69-1.16v-1l.64-.57.59.48.37,1.15.48.43,1-.14,1.44-1,1.55-.58,1.38-.86,3.31-.67h1.44l.74-.77,1.6-1-.21-.67h-.64l-.91-1.06.11-.81.75-.43.85.19,1.28-.15.9.34,1.44.19,1.55-.19,2.08-.24,1.06-.72.91-.43.27-.72-.16-.72.21-.87.8-.48,0-.76.79-.82.43.24.59-.05,1-1.44.64-.24,0-.67.21-.67,1.39-.72,1-.63h1.33l.69.39,1.44-.58.32-.67V169l.48-.72-.53-.77-2.08-.47-.21-1-.06-1.29-.53-.86.43-.63-.75-.48.64-.38v-.72l-.64-.15-1.33.87-.75-.68v-1.1l1.76-1.67.59-.82-.11-1-1-.53.21-.67,1.12-.62.59-1.06-.64-.58-.05-.71,1-.87.59,0,1.81-2.16.64-1.15-.59-.67v-1.25l1-.72h1.38l1,.53,1-.58.85-.29-.39-19.77-44.72-20.46L175.63,108Zm-13.36,52,.49.33.82-.17.4-.72Zm-44.85,5.53-.06-.53-.61,0-.67-1.43.37-.53-.21-.52,1.15-1.06,1,0-.05-.69-.39-.41-.24-.9.21-.39.08-.29-.21-.44.16-.51,1.24-.9.62-.21.43-.24,1.12-.22.88.05.45,0,1.69,0,.48-.39.9,0,.62.19,1.52.22.67.33.9.15,1.66.55.51.55,1.23,1.62,1.09.6.56-.19.62-.68.77-.07.83-.36,1.57-.26.22-.22.9,0,1,.68v.38l1.12.39,1.78.89,1.15.15,2.24.74,1,.22,1.36-.82,1.42-1.78,1.17-.29,2.91.17,1.2-.53,2.46.27,1.79.76,1.57.05.64.42,1.71-.56.14-.24,1.17-.39.32-.6.72-.17.83.31.54-.21.18-.63.65-.91,1,.35-.41-6.3.13-.62h.64l.59-.2.27-.55,9.22-8.48-.21-7.3,1.49-9.41.86-.77.1-1.83-3.73-4,.32-.58.11-1.34-2.67-6.92-.63-.63-4.95,1.85-.9-.86L160,106.77l-24.91,13.89-6.87,5.66-8.48,1.83-.27,9.64-.37,4.51-.9.49-.16,1.72-.38,1.1L114.93,147l-1.65.77-1.65.1-1.6,1h-3.52l-1.44.62-1.28-.09-3.84.33-1.28-.29-.37.68-.21,1.39-.69,1v1.43l5.27,3.17.11,2,1.92,1.34,2.4-1.15.58.29.16.62.43.38.11,1-.64.77,1.22,1.44,1-.09,1-.29-.16-.58.48-.91,1.81,1.35,1,1.24,1.28.24,1.2,1.43Zm55.17-5.39-.06-.05-.8-1.21-1.44-1.68-1.76-.6-.65.91-.18.63-.54.21-.83-.31-.72.17-.32.6-1.17.39-.54,1-.82.17-1.13-.75-1.57-.05-1.79-.76-2.46-.27-1.2.53-2.91-.17-1.17.29-1.42,1.78-1.36.82-1-.22-2.24-.74-1.15-.15-1.78-.89-1.12-.39V159l-1-.68-.9,0-.22.22-1.57.26-.83.36-.77.07-.62.68L134,160l-1.09-.6-1.23-1.62-.51-.55-1.66-.55-.9-.15-.67-.33-1.52-.22-.62-.19-.9,0-.48.39-1.69,0-.45,0-.88-.05-1.12.22-.43.24-.62.21-1.24.9-.16.51.21.44-.08.29-.21.39.24.9.39.41.05.69-1,0-1.15,1.06.21.52-.37.53.67,1.43.61,0,.06.53-1,.72-.24,1,.24.8,1.52,1.08,0,1.23.56,1.79-.22.57-1.2.07-.43.63-.07.46,1.17,1.15-.29.46-.75-.05-.78.63-.29.72-.77,1.23-.48.91-.54.39-.64.09-.88.32-.43.57.08.92-.1.72-.11,1.08.08.37.13.84-.13.39.21.33.06.58-.22.74.27,2.12,0,.73.16.81-.24,2.53.22,1,2.16.41,1.77-.64,4.06,1.92,2.27,2,1.39,2.42,0,1.59.76.34.63,1.74,1.42,1.16,2,.5,5.37-.27,1.09-.6.8.3,2.56-.83.83.34,1.43-.26.55-1.4,1,.94.42-.23.05,0,0-.63,1.44-1.49.58-1.24-.21-1.2,0-1.06.64-.38v-.72l.9-.77,1-.58.48-.53,1.66-1.1-.11-1,.27-.52,1.22-.05.54-.62.26.23,1.49.44.59-.05,1.06.48.59,1,1,.63.64.24,1.17-.63.75-1.1v-.43l.43-.58L160,191l.64-.92-.06-.72.43-1.2,1.71-1.53.21-.82-.26-.72.53-.76,1.44-1.39,1.12-.68.1-1.05.43-.72L166,179l.81-.67,1.49-.39,1-1.1.21-1.15v-1.3l-.16-.76.64-1,.9-1.68.59-.44.16-.43,1.07-.76.63,0,.75-.76,1.28-.53.11-.62-.41-1.31-.06-.56-.37-.82-1-.24-.48-.89.05-1.51-.13-.78-.51-1.23Zm-41.27,65.93.62-.36.4-.72-1-.54-.64.63.16.92Zm10.93-15.78,1.06.15.81-1.95L144,207l-.38-.34-1.18,1.08-.42,1.16-.72.05-.08.76Zm1.33-7,.88-.42.67,3.06,1,.11.5.53,1.64-.64.84,1.21-.38.64v1.4l1,1.28.22,1.93-.76,1.73.8.76-.88.79.73-.13h.66l.32.22,6.6,0h0l.18-.22.49-.2.53,0,.58-.26,1.55.07.47-.14,1.74.09.5.17.9-.17h.79l.11.23,1.4.09.27-.14.46,0,.36.39,7.05.12.61.24.27-.26h.46l.61.57.54-.14.66.17.38.41.56-.1.16-.34.4.1.8.53.48-.15h1.2l.45.2.48.14.43-.07.16.29.64-.1.14-.48-.51-.82.24-.38.59-.82.34-.7.14-.2-.14-.11-.23-.34,0-.79-.16-1-1.76-1.22-.67-.58-.83-1.47-1.36-1.8-.35-1.06-.88-1-1.6-.7-.53-.36v-2l-.13-1.11-.46-1.3.24-1.23-.46-1.32-.15-1.06.5-.68.62-.21,1.09-1.37.62-1.23,1-1.71.51-1,.8-.29,1-1.28-.06-1.2-1-1.33-.83-1.27-.85-.65-2-2L175,179.57l-.93-.31-.16-.56-.56-.36-.21-.55v-.85l.32-.48.05-.89.86,0,.93,0,.56.19,1-.14.83.12.72-.1,1.2.12.61.32.75.12.61-.39-.45-.17-1.47-1.11-.34-1.08-.86-.36-1-1.28-.05-1,.67-.62.42-1.3-.61-.65,0-.44.27-.51,0-.67-.64-1.37-.24-.87-.43-.48-.29-1.44-1.26-1.06-2.75-1.26.51,1.23.13.78-.05,1.51.48.89,1,.24.37.82.06.56.41,1.31-.11.62-1.28.53-.75.76-.63,0-1.07.76-.16.43-.59.44-.9,1.68-.64,1,.16.76v1.3l-.21,1.15-1,1.1-1.49.39L166,179l.22,1.54-.43.72-.1,1.05-1.12.68-1.44,1.39-.53.76.26.72-.21.82L161,188.17l-.43,1.2.06.72L160,191l-.85.23-.43.58v.43l-.75,1.1-1.17.63-.64-.24-1-.63-.59-1-1.06-.48-.59.05-1.49-.44-.26-.23-.54.62-1.22.05-.27.52.11,1-1.66,1.1-.48.53-1,.58-.9.77v.72l-.64.38,0,1.06.21,1.2-.58,1.24-1.44,1.49,0,.63Zm13.81,18.39-7.58-.08-.32-.21-.62.12-.69.43-.67-.12-.07,1.18-1.17.16,1.09,1.58,1.72.38-2.44.53L146,225l-.16,1.4-.25,2.75-1,.8-1.34-.42-.09.53,1.18,2.19.62.45v.8l1,1.17v1.51l.84.75.59,1.18,1.42,1.05-.42.27,1.51,1.43,2.52,1.82.51,1.09,2,.87.17.83,1,.34.24.21.81-1,.11-.67.53-.24,1-.05.32-.53h.43l1.54,1.11.06-.87-.11-2.49-1-.63-.53-.38-.86.19-.85.24.16-1-.42-.72.53-.48,1.17-.14,1.07.58.53-.39.27-.58h.85l2-.09.27-.82-.21-1.2.53-.58,1.07.1.9,2,.75.81,1.33-.33.69.14.64-.38,1.18-.05,1.12.43.31.68H173l.05-.92-.27-.91,1.39-3.65.53-2,.05-1-.56-.5-.26-.6-.85-.63-.2-.44-.65-.27-.22-.43-.37-.4v-.37l.63-.22.28-.29.35,0-.27-.7-.28-.3.07-.69,1.17-.59,1-.19.16-.94-.35-.53.4-.63-.1-1.49-.62-.39-1.76,0-1.2.41-1.23.29-.78-.19-.88.43-.53-.26.21-.63-.32-.8.14-1.25-.38-1,.27-1h.05l-.36-.39-.46,0-.27.14-1.4-.09-.11-.23h-.79l-.9.17-.5-.17-1.74-.09-.47.14-1.55-.07-.58.26-.53,0-.49.2-.18.22Zm-9.88.14.67.12.69-.43.62-.12.32.21,7.58.08v-5.95l-6.6,0-.32-.22h-.66l-.73.13-.21.19.42.87-1.77,1.78-1.38,2.38,1.38.64ZM157.38,247l.38.64,1.68.95,0,.91.88.86,0,1,.64.62.54-.28.54-1.18h.37l.88-.43.32-.9.8-.14.94-.7h.48l.58.46.54.65,0,.82.17-.14.68.05.82-.36.32.53,0,.45,1,0,.64-.67,0-1.08.78-.08.75.2,1.13-.89,1.75-.52-.1.49-.64,1.1.28.24.32.84,1.31.69,1.32-.51.8-1.08,2.28-2,.36-.75.88-.54,1-.22.92-1.33,0-.9.36-1.36.21-2.74-.32-.4-.24-1.41.62-1.06,1.68-1.59,0-1.08L187.1,233l1.3-.82.71.22,1-.69,1.08-.27,1.76-2.62,0-1.69.48-1.65.8-.32.16-1.41-.24-.28.32-1.52-.16-.61.16-1.47.8-.94.08-1.12.32-1.08-.48-1.72,2.4-2.77.24-.91,1.07-.5,0-2-.52-1,0-.27-.65.16-.54.19-1-.51-.37-.4h-1.66l-.59.36-.88-.08-2.37.87-.46.53-1,.19-1.39,1.2L184.86,214l-.34.7-.59.82-.24.38.51.82-.14.48-.64.1-.16-.29-.43.07-.48-.14-.45-.2h-1.2l-.48.15-.8-.53-.4-.1-.16.34-.56.1-.38-.41-.66-.17-.54.14-.61-.57h-.46l-.27.26-.61-.24-7.1-.12-.27,1,.38,1-.14,1.25.32.8-.21.63.53.26.88-.43.78.19,1.23-.29,1.2-.41,1.76,0,.62.39.1,1.49-.4.63.35.53-.16.94-1,.19-1.17.59-.07.69.28.3.27.7-.35,0-.28.29-.63.22V227l.37.4.22.43.65.27.2.44.85.63.26.6.56.5-.05,1-.53,2-1.39,3.65.27.91-.05.92h-.54l-.31-.68-1.12-.43-1.18.05-.64.38-.69-.14-1.33.33-.75-.81-.9-2-1.07-.1-.53.58.21,1.2-.27.82-2,.09h-.85l-.27.58-.53.39-1.07-.58-1.17.14-.53.48.42.72-.16,1,.85-.24.86-.19.53.38,1,.63.11,2.49-.06.87-1.54-1.11h-.43l-.32.53-1,.05-.53.24-.11.67-.81,1Zm9.59,3.27,0-.82-.54-.65-.58-.46h-.48l-.94.7-.8.14-.32.9-.88.43H162l-.54,1.18L161,252l.66.66.38,1.44-.63,1,.3.59,1-.62,1.05-.14.63-.56-.1-1.81.44-.52,1.19-.9Zm98.14-17.34.69.51.13.6.48.67.46,1.45.15,1-.31.7-.19.65-.46.4-.58.31-.62-.11-.21-.23v.49l.32.43v.67l.8.39.21.62.69.09.32,1.49-.1.72-.91.82-.75.72-.64.48-1.44,1.44-.95,1.24-1.87.44-2.79,0,.73,4.22,1.32,5.9,3.91,4.86,1.35,3.94,1.85.81h.8l.84.29h.56l.8.5.08.4.68.57,1,0,2.51.79h.6l.48.43.72.11.36.79,1,1h.44l0,.06.26-.18.52.07.34.55.67.1.3.32.34-.2.62.08.37.27.4.08.24.34.61.33.6.52,1.86,1.85.28,1.89L285,288l1.08-3.53,5.31-.08.92-.18.24-.36.8-.14,0,.43.72.18.68.43.72.07.56.54-.16.43,1.64-.43,1.2-.75.6-.14.44-.33.64.25.08.32.72,0,.68.4,1.16-.4,1.55-.11.4-.75-.27-.58.39-.32,1,.29.75-.15.76.51,1-.11.52-.4,2.08-.57.8.28.88-.25.4-.43,1.28-.14.76-.72,1.16-.15.84-.61.64-.79,1,.25.48-.5.19-.08-.15-.08v-.5l-1.19-.91-1.44-.18L315,276l.19-.75-.57-1.49-.52-.56.54-.81-.64-.51-.23-1-.34-.6.32-.08-.61-1.32-.19-1.11.75-.56.15-1.17-.84-.74-.1-1.84.33-1.21.67-.39.46.13.32-.58-.74-1.85-.73.1L312,258.49l-1.57-1.23-.06-1.14.92-2.09,1.19-3.32.38-.49-.11-.77-.27-.28h.21l-6.9-4.38-.48-.53-.21-.62.27-.48-1.12-1.68-20.36-10.7-11.36.55-6.76,0-.48.43-.51-.1-.32.39Zm-7.57,15.93,2.79,0,1.87-.44.95-1.24,1.44-1.44.64-.48.75-.72.91-.82.1-.72-.32-1.49-.69-.09-.21-.62-.8-.39v-.67l-.32-.43v-.77l-.64-.34-.27-.76-.64-.1-.48-.38h-.48l.11.91-.69,1.53V240l-1.12.33-.54-.48-.37.1-.32.33-1-.33-.43-.82-.58-.19h-1l-.49.11-.08.56.72,1,.12,1.12V243ZM162,256.31l1.59,0,.67.46h.11l.11-.05.17-.24h.44l.35-.16,1-.24.87-.18.84.08.76.06H170l1.28,0,1.64-.07.88.07,1.76.07,1.92-.14h3.91l5.79,0v.72l-.14.21.19.59.44.54.12.61-.28.47v.72l.6.89.32,1.19.2.44,0,.57.48.32.48.65.72.94.32,1.8.6.29,1.48-.08,1-.18.6.18,1.92.11.72-.36,4.19-.25,0-1.37-.16-1,.48-.22.4-.79.16-1.44,5.4-.07,0-.47,1.68.15,0,.57-.36.54.16.51,6.46.42.12.62-.06.75v.73l-.48.81-.21.84.6.79v.72l-.28.36-.12.36.24.61.16,1.8-.44,1,.28.43,0,.51.48.61v.54l.36.21.36.62.44.07.08.61-.2.65v.54l.72.61v.54l-.28.32.2,1,.66.47-.33.76.06.25-.4.3,0,1,.16.36.63-.07.34-.35.48-.14.3-.18h.54l.78.51.6.18,1.43,0,.51.09.59-.13.52-.18,1-.41.88-.32,1-.11v.11l.45.33h.64l.9.25.25.31.06.91.2.31.37.13.59-.5.76-.31.84,0,.36-.33,1.45-.4.34.09.06,1,.28.47.12.71-.08.36.42,0,1.08.45.54.05,1.3.71,1.08.16,1.31.27.09.29h.89l1.68-.5.06-.49.52-1.32.72-.11.5-.24.46.13v1.43l.84.9.12.54,1.36.68,2,.61,1.24.72,1.16,1.4,1,.8,1.08,1.15,1.2,1H256l.92-.21.84-.29.39.07.09.28.91.15.29-.43-.29-5.29-.72-.25-1.19.17.11.58.32.47-.27.14-2.28,0-.52-.62-.32-.78-1.48-1.44-.72-.51-.08-1.3-.08-2.76.12-.69,1.08-.9.36-.5-.2-.33.44-.22.16-1-.12-.76.1-.67-.1-.69.36-.32.06-.58-.54-.27-.62-.53-.3-1.1,2.26-3.9,9.05-2,.79.34-1.35-3.94L259.59,259l-1.32-5.9L256.55,243v-1.29l-.12-1.12-.72-1,.2-1.33.83-3,1.05-1.11,1.47-1.22-.16-1.16.73-1.8.15-1.83,0-1.29.4-.62,2.16-3.49.48-.75,1.76-1.77,2.85-3.41.1-.56-.42-.83-.54-.65-.62-.39.12-1.27.32-1.71v-1.4l.56-.66.28-.92-.41-.23-1.37,0-.22,0-.12-.56-.3-.72-.34-.4-.42-.83-.59-.49-1.46-.43-.3-.43-.62-.65-.68-1.27-.44-.25-1.24-.05-.6.65-.48.54-1.17.28h-.46l-.15-.27-.73,0h-1.32l-.68.32-.42.64-.62.16-1.1-.38-1.12-.85-.64-.61-.63-.17-.59-.63-.19-.79-.38-.13-1-.54-1.26-.1-1.72.7-.32-.16-2.08,0-.79-.48-.82-.12-.54-.27-.64.06-1.18-.17-.52-.45-.84.05-.06.39.24.34-.72,1h-.64l-.76.15-1.35,0-.68.43-.48,0-.24-.57-.4-.07-.12-.37-.74,0-2.3.9-.86.31-.42.47-2.39.25-.72.27-.62-.61-1-.2-1.12,0-.78.91-.88.81.1.56.58.43-.2.4-1.31.25-.52-.27-1.32-.24-1-.34h-.72l-.7.28-.76-.12-1.37-.08-1.12-.57-1.23.07-.32-.28-1.48-1.13-.84-.28-1.6-1.23-.64-.07-.84-.57H203l-.16.46-1-.1-.8.71h-.68l-.4.33-.12.69-.52.57v.54L199,204l-.76,0v.57l.87,1-.36.43-.28.72-.08,1.07.52,1,0,2-1.07.5-.24.91-2.4,2.77.48,1.72-.32,1.08-.08,1.12-.8.94-.16,1.47.16.61-.32,1.52.24.28-.16,1.41-.8.32-.48,1.65,0,1.69-1.76,2.62-1.08.27-1,.69-.71-.22-1.3.82L186,234.2l0,1.08-1.68,1.59-.62,1.06.24,1.41.32.4-.21,2.74-.36,1.36,0,.9-.92,1.33-1,.22-.88.54-.36.75-2.28,2-.8,1.08-1.32.51-1.31-.69-.32-.84-.28-.24.64-1.1.1-.49-1.75.52-1.13.89-.75-.2-.78.08,0,1.08-.64.67-1,0,0-.45-.32-.53-.82.36-.68-.05-1.24,1-1.19.9-.44.52.1,1.81-.63.56-1.05.14-1,.62Zm116,18,.38.27.26.71.79.41.67.2,0,.36-.62,1.27.11.48.95.62.32.74.06,1-.28.35V281l-1.25,1.15-.18.83.37.87.1.76.2.59-.44.65.5.78-.22.52-.28.24.24.65.07.47.61.34.08.38-.52.13-.3.5-.79.33-1.22.81-.24.4,0,.7.16.42-.18.52v.71l-.84.88-.58.27.18.47.76.85.48,1,.12.47,1.47-.32.36.54.2.47.48.51.08.61.92.5.44-.22h.68l.48-.46,1.16,0,1.48.32.52.79v1.37l-.12,1.15L284.41,304l-.28,1.15-.72.9.12.83L284,308l.12.8,1,1,.92.79.72.36.64.47.71.9-.36.61.29.72,1.07-.22.24-1-.39-1.19.56-.86.15-.94.57-1.32,1.11-.3.76-.57.36-.79,0-1.84-.56-.57.12-.47-.28-.36.2-.4.6-.07.24-.5.72-.22,0-.54-.36-.68-.48-1.23-1.28-1.54-.36-.8-1.87-1.69-.56-.1-.4-.51-.8-.68-1.76-.83-.92-4.6L285,288l.08-8.4-.28-1.89-1.86-1.85-.6-.52-.61-.33-.24-.34-.4-.08-.37-.27-.62-.08-.34.2-.3-.32-.67-.1-.34-.55-.52-.07-.26.18Zm-50.84,8,0,.36-.28.37.36,2.09-.09,1.8V288l.65.94,0,.82-.43.4-.28,1.4.35.54H215.45l-.36,16.63.24.65.76.82.64.54.48.55.72.35,1.12,1.23.72.57.84.29.4.54.68.72.68.29.32.78,5.23-1.06.58.06,1.26-.29.36.16h.24l.38.27.6,0,.3.18.26.1.8.85.56.05,1.33.14,1,.46.54.4.55,0,1-.63,1.23-.13.55.24.26,0,.34.12.12.07.84.58,1,.21,1.51-.43,1.63-2.13,2.62-2.93,3.27-2,1.88-.6.47-.35.09-.36-.12-.45.28-.5-.16-.45.46-.74,1.54-.73.88-.23.74-.33,1.15-.38,1.52,0,.26.29.58-.07,1.14.14.46-.07.22,0,0-.52-.44-1.55.48-.75,2.16-1h1.16l5.64-2.12,1-.18,3.3-1.2,1.64-.49h.06l-.12-.47-.48-1-.76-.85-.18-.47.58-.27.84-.88v-.71l.18-.52-.16-.42,0-.7.24-.4,1.22-.81.79-.33.3-.5.52-.13-.08-.38-.61-.34-.07-.47-.24-.65.28-.24.22-.52-.5-.78.44-.65-.2-.59-.1-.76-.37-.87.18-.83,1.25-1.15v-.29l.28-.35-.06-1-.32-.74-.95-.62-.11-.48.62-1.27,0-.36-.67-.2-.79-.41-.26-.71-.38-.27-.33-.79h-.44l-1-1-.36-.79-.72-.11-.48-.43H274l-2.51-.79-1,0-.68-.57-.08-.4-.8-.5h-.56l-.84-.29h-.8l-2.64-1.15-9.05,2-2.26,3.9.3,1.1.62.53.54.27-.06.58-.36.32.1.69-.1.67.12.76-.16,1-.44.22.2.33-.36.5-1.08.9-.12.69.08,2.76.08,1.3.72.51,1.48,1.44.32.78.52.62,2.28,0,.27-.14-.32-.47-.11-.58,1.19-.17.72.25.29,5.29-.29.43-.91-.15-.09-.28-.39-.07-.84.29L256,294h-.68l-1.2-1-1.08-1.15-1-.8-1.16-1.4-1.24-.72-2-.61-1.36-.68-.12-.54-.84-.9v-1.43l-.46-.13-.5.24-.72.11-.52,1.32-.06.49-1.68.5h-.89l-.09-.29-1.31-.27-1.08-.16-1.3-.71-.54-.05-1.08-.45-.42,0,.08-.36-.12-.71-.28-.47-.06-1-.34-.09-1.45.4-.36.33-.84,0-.76.31-.59.5-.37-.13-.2-.31-.06-.91-.25-.31-.9-.25h-.64l-.45-.33ZM222.69,316l-.32-.78-.68-.29-.68-.72-.4-.54-.84-.29-.72-.57-1.12-1.23-.72-.35-.48-.55-.64-.54-.76-.82-.24-.65.36-16.63h11.91l-.35-.54.28-1.4.43-.4,0-.82L227,288v-1.08l.09-1.8-.36-2.09.28-.37,0-.36,0-.31-1,.11-.88.32-1,.41-.52.18-.59.13-.51-.09-1.43,0-.6-.18-.78-.51h-.54l-.3.18-.48.14-.34.35-.63.07-.16-.36,0-1,.4-.3-.06-.25.33-.76-.66-.47-.2-1,.28-.32V278l-.72-.61v-.54l.2-.65-.08-.61-.44-.07-.36-.62-.36-.21v-.54l-.48-.61,0-.51-.28-.43.44-1-.16-1.8-.24-.61.12-.36.28-.36v-.72l-.6-.79.21-.84.48-.81v-.73l.06-.75-.12-.62-6.46-.42-.16-.51.36-.54,0-.57-1.68-.15,0,.47-5.4.07-.16,1.44-.4.79L201,264l.16,1,0,1.37-4.19.25-.72.36-1.92-.11-.6-.18-1,.18-1.48.08-.6-.29-.32-1.8-.72-.94-.48-.65-.48-.32,0-.57-.2-.44-.32-1.19-.6-.89v-.72l.28-.47-.12-.61-.44-.54-.19-.59.14-.21V256l-5.79,0h-3.91l-1.92.14-1.76-.07-.88-.07-1.64.07-1.28,0h-1.12l-.76-.06-.84-.08-.87.18-1,.24-.35.16h-.44l-.17.24-.11.05h-.11l-1.59.79.59.64V259l3.06,3.09.11,3.89,1.68,2.12-.25,2-1.77,2,1,.45v1.82l.84,1.21v1.29l2.1,3.1-.08.83.67.76v4.38l-2.18,3.71h-.67l-2.44,1.67-.09,1.21-3,2.42-.08,1.66-.51.38v4l-1.34,1.59-.34,1.89-1.51,1.66v1.82l-.25,1.59.08,2.42-.25,1.59,0,.5h0l.86.18.3.2.48-.16.18-.61.32-.16,1.38.17.76.4.48-.34L163,313l1.61-1,.72,0,.88.36.26.18.34-.29.42-.12.72.34.08.32.64.22-.12.45.34.18,1.22,1,1.22.41.91-.43.22,0,.76-.47.56,0,.34.2,20.77,0,.34.2.56,1,.44.36,1.1.43,1.2.26.82-.13.62.23.16.31.76.29.78-.45,1-.23,1.39.33.74-.1.16-.58.3.15.64,0,1.22,1,.92.36,1.16.06.42-.2,0-.35.62-.16.57.14.4.26.46-.16.32.36.44,0,.26.12.5.05.46-.05H214Zm10,.25h0l.23.49-.15.42.12.37,0,.52.8.56.39.38.71.42.44.56.14.51.3.18.54.84.24.85.52.49.26.72.62.46.26,0,.44.68,1.58,2.19,1.09.59,1,.65.54.45.74.4,0,.28-.06.32.22.49.95.34.88.58-.28.65.24,1.15.08.79.36.83,1,.72.56.82,1.24.22.64-.22,1.44.43.76,0,1,.61.72,0,.52.39V338l.4.44.46.5,1.86-.24,1.29.2.38.66.86-.05,1.18.51.38.32.8-.29,1.52-.2,1.87.35.89.66,6.14-5.48.08-1.69.28-.58,0-1.51.41-.61-.32-.83.16-.68.76-.08.36-.57,1.07-.75.72-.91-.28-.72-.64-.46v-1l.64-.37-.28-.82-.92-.72v-.62l.69-.21.11-1v-.86l.84-.54.4-.76-.92.15-.43-.47.59-.86.13-1.51.43-.72,0-.62-.12-.61.16-.72-.16-.72.52-.75-.08-.87-1.24-.07-.6-.65-1-.72-1.72-.18-1-.11-1-1.18-1.56-.76-1.52-.36-.36.5-.64.11-.28-.5-.8-.14-2-.08-.12-1.78-.22,0-.46.07-1.14-.14-.58.07-.26-.29-1.52,0-1.15.38-.74.33-.88.23-1.54.73-.46.74.16.45-.28.5.12.45-.09.36-.47.35-1.88.6-3.27,2-2.62,2.93-1.63,2.13-1.51.43-1-.21-.84-.58-.12-.07-.34-.12-.26,0-.55-.24-1.23.13-1,.63-.55,0-.54-.4-1-.46-1.33-.14-.56-.05Zm0,0h0l-1.16.29-1.78.58-.7.43-.7-.09-.28-.4-1.21.13-1.1,1-1.06,1.21-1.82,1.15-.46-.09.1-.68.3-.36-.4-.37-.3-.7-.34-.2-.24.11-.74.07-1.64.44L213.82,320l-4.17-.17-1,18-4.91.09-1,15.74v.11l0,.06v-.06l1.84,1.22.56,1.37,1.44,2.81,0,1.37-.8,1.6,0,.95,1.48-.18,1.48.25.88-.36,1.31.18.89-.54,1.15-.25,1.08-.76.4-.61,1.84-.65,1-1,.88-2,1.48-1.19,1.36-.14,1.88.25.56.65.64,0,2,1,.88-.14,1,.29,1.15-.26h1.32l.88-.1.44.5.68.25,1.24-.72-.32-.4.32-.89v-.62l.52-.5-.08-1.33.48-.83,1.16-.18.76-.46.75-.1.34-.43.36-.23.28-.67.78-.58.6-.14.36-.42.76-.14v-.79l-.28-.39.15-1.23,1.49-1.79.79-.33.57-.14.43-.47.8-.25.24-.47.68-.36.56-.5,1.2-.91,1.12-.17.36.21.52-.1.92,0,.76-.65.8-.14.32-.78-.12-.49.58-.45,1,0,.52-.36.68-.08-.46-.5-.4-.44v-.54l-.52-.39-.72,0-1-.61-.76,0-1.44-.43-.64.22-1.24-.22-.56-.82-1-.72-.36-.83-.08-.79-.24-1.15.28-.65-.88-.58-.95-.34-.22-.49.06-.32,0-.28-.74-.4-.54-.45-1-.65-1.09-.59-1.58-2.19-.44-.68-.26,0-.62-.46-.26-.72-.52-.49-.24-.85-.54-.84-.3-.18-.14-.51-.44-.56-.71-.42-.39-.38-.8-.56,0-.52-.12-.37.15-.42-.23-.49Zm-29.94,37.4v-.11l1-15.74,4.91-.09,1-18,4.17.17,5.35-1.12,1.64-.44.74-.07.24-.11.34.2.3.7.4.37-.3.36-.1.68.46.09,1.82-1.15,1.06-1.21,1.1-1,1.21-.13.28.4.7.09.7-.43,1.78-.58,1.16-.29-.8-.86-.26-.1-.3-.18-.6,0-.38-.27h-.24l-.36-.16-1.26.29-.58-.06L214,317.79h-.35l-.46.05-.5-.05-.26-.12-.44,0-.32-.36-.46.16-.4-.26-.57-.14-.62.16,0,.35-.42.2-1.16-.06-.92-.36-1.22-1-.64,0-.3-.15-.16.58-.74.1-1.39-.33-1,.23-.78.45-.76-.29-.16-.31-.62-.23-.82.13-1.2-.26-1.1-.43-.44-.36-.56-1-.34-.2-20.77,0-.34-.2-.56,0-.76.47-.22,0-.91.43-1.22-.41-1.22-1-.34-.18.12-.45-.64-.22-.08-.32-.72-.34-.42.12-.34.29-.26-.18-.88-.36-.72,0L163,313l-.16.72-.48.34-.76-.4-1.38-.17-.32.16-.18.61-.48.16-.3-.2L158,314h0l.3,4.26,3.28,3,1.77,2.72,2.74,5.55.42,2.23,2.77,3.55v1.4l2.94,3.81v2.08l-.72.27.8,2.56.17,3.86,1.64,3.92-.17,2.12.5,1.43-.8.46.68.75.4,2.62.75.36.5.88-.58.41v1l.88.87.1,1.93,1,1.24,1.34,2.38,1.34,1.21.3.68,1.89,1.22.8-.42,1.16-.22v-.61l-.36-.29.56-.9,1.36-.46.64,1,1.08,0-.48,1.08.8,1.48,1.88.36,1.2.58.88-.18.6.21,1,.14.44-.39h.84l.4.68.8-.11.68.15,0-1,.48-.44.67-.21.52-1,1.48-.68,1.76.11H202l.76-18ZM266,341l.32,1.37.32,1.3.66,1.23,0,2.33-.1.29,0,1,.36.95.34,1.14-.05,3.89-.4,1.55-.08,1.44,0,1.68.09.14.59.3.57.56.52.62-.18.36-.1.67-.26.84.12.39.52-.11,1.93.42,1.1,0,0-.77.54-.83.24-1.41,0-.47-.35.05-.25.85-.8-.22-.5.58.06-.88-.54-.92-.23-.27.52-.32.57,0,.4-1.22.71-.51.41-.61,1.43-.32,1.86-1.6,4.87-.86,3.6-1.47,2-1.94.34-1.29.69-.93-.19-.58-.84.45-.21-.86h.29l.08-1,.51-.57v-.83l.67-1.59-.25-.19.08-1.35.46-.53.07-1.35-.27,0-.09-1.05-.63,1.2v.87l-.39.06-.32-1.1.27-3.12-.65-1.1,0-1.17-.59-.87-.54-.22.71-.53-.05-.68-1.59-1.93.59-.79-.17-.76.42-.49,0-.79-.54-.57v-.41l.59-.08,1,.61.55-.65h1.34l1-.64-.17-1.13,3-1.79,1.3,0-.07-.7.53-.15.58-.45,0-.51,2.24-1.18.21-.76.65-.15.23-1.3.4.79.67-.26,1.36-1.49,0-.62.54.32,2.24-1.32,1.61-.68.06-.26,1.36.15,3.54-1.69.29-.72.54,0,3.7-1.82-.09-.94.92-.12,1.1-1.36v-.6l1.21-1.4.72-.11.12-1,.5-.64-.71-.08-.25.19-.21-.26.8-.72h.71L319,302l-.36-.45.59-.27.56-.73-.25-1.94-.29-.2-1.11-.05-.29-.35,0-.28.83-.12,0-2.24-.31-.41.23,0,.4-2.47-.21-1.32.59-.52,0-1.25-.32-.3v-1.28l.34-.31-.63-1.05-.26-1.78.42-.38-.08-.3-.21-.38.13-.53,1.13-1.47-.29-.22.29-.61.21-1.17-.4-.22-.19.08-.48.5-1-.25-.64.79-.84.61-1.16.15-.76.72-1.28.14-.4.43-.88.25-.8-.28-2.08.57-.52.4-1,.11-.76-.51-.75.15-1-.29-.39.32.27.58-.4.75-1.55.11-1.16.4-.68-.4-.72,0-.08-.32-.64-.25-.44.33-.6.14-1.2.75-1.64.43.16-.43-.56-.54-.72-.07-.68-.43-.72-.18,0-.43-.8.14-.24.36-.92.18-5.31.08-1.36,4.46.92,4.6,1.76.83.8.68.4.51.56.1,1.87,1.69.36.8,1.28,1.54.48,1.23.36.68,0,.54-.72.22-.24.5-.6.07-.2.4.28.36-.12.47.56.57,0,1.84-.36.79-.76.57-1.11.3-.57,1.32-.15.94-.56.86.39,1.19-.24,1-1.07.22-.29-.72.36-.61-.71-.9-.64-.47-.72-.36-.92-.79-1-1L284,308l-.48-1.11-.12-.83.72-.9.28-1.15,1.16-1.12.12-1.15v-1.37l-.52-.79-1.48-.32-1.16,0-.48.46h-.68l-.44.22-.92-.5-.08-.61-.48-.51-.2-.47-.36-.54-1.53.33-1.64.49-3.3,1.2-1,.18-5.64,2.12h-1.16l-2.16,1-.48.75.44,1.55.16,2.3,2,.08.8.14.28.5.64-.11.36-.5,1.52.36,1.56.76,1,1.18,1,.11,1.72.18,1,.72.6.65,1.24.07.08.87-.52.75.16.72-.16.72.12.61,0,.62-.43.72-.13,1.51-.59.86.43.47.92-.15-.4.76-.84.54v.86l-.11,1-.69.21v.62l.92.72.28.82-.64.37v1l.64.46.28.72-.72.91-1.07.75-.36.57-.76.08-.16.68.32.83-.41.61,0,1.51-.28.58-.08,1.69-6.14,5.48Zm1.41,18.14-.92-.36-.88-.69-1.4-.71-1,.43-.24,1-1.36,2.27-.48,1.19.32.61.6.5.64,1,1.81.91,2.14.1.86-.28.28-.86-.1-.76.66-.42.38-.07-.12-.39.26-.84.1-.67.18-.36-.52-.62-.57-.56-.59-.3-.09-.14Zm-25,24,.58.73,1.28.46,1,0,.3-.51.38-.41.48-1.21,1-.26.72-.43,1-.16.66.18,1-.61.26-.8-.44-.36-.1-.6,1-.44,1-.78-.06-1.21-.88-1.94-1.2-.83-.86.22-.81-.52-.31.21-.55-.34-.78,0-.2.4-.7.38-.48.49-2,.31-1.24,1-.52,1.3-1.47,1-.74.47.46,1,.65.57.13.51.67.69.09,1Z"/><path class="cls-1" d="M347.7,74.81l1.24-2.1,1.2-2.45,2.48-1,1.92.64,1.28-.35.54.2-.13.27.54,2.23-3.19.57,2.18,1.29.26-.46.38.76,0,.83.62.64h-.2l-.21.11.58.66-3.39,1.42-.31-1.84-5.08-1.4Zm27.87,23.87.63-.11.42-2.45-.59-1h-.38l-.21-1.7h.26l.37-1.62-.21-.34h-.46l-.08-.53-1-.68h-.42l-.17.45-.42,0v.42l-.37.26.21.8h-.25l.29,1.51-.29-.2h-.47l-.16,1.52.25.72.38.41v1l-.29.16.23.48,1.8.86h.92Zm-18-30.32-.41-.31-1.2-.43L355,67l-.36-3.09h-1.76l-.43-1.33.07-1.48,1.16-.94-1.16-2.23-1-.5-1-1.77-.69-.43-.59.22L345,53l-1,.08-.56.35-1.16-.79.2-.61-.32-.36.52-1-1.24-.94-.24-.72-1.2-.22-.6-.68-.76-.07v-.68l.44-.54-.36-.51.32-.68,0-1.84.6-.46.2-1.55.72.14.68-.39V39.73l-.44-.25-.12-1.29.66-.12,1.08-.33.34-.21-.48-.29-.76-.35-1.2.11-.82-.18-1.88-1-.82-.1-1-.5-.52-1.16-.56-.82-.84-.18-.52-1,0-.9L333,30l-1-.07-1.36.35-.92-.39,0-1-.76-.44-1.44.36-1.92-.43H323.3l-.56.4h-1.31l-1.52,1.12.24.17-.72,1.09h-.52l-1.16.89-2.16.4-1,1.65-.12,1.62,1,1.87,0,1.59-1,1.76.28.79,0,1.37L314,44.23l-.52.76-9.86,6.33,0,0h0l2.83,6.53,4.92.54,25.94,16.22,10.46.16,1.24-2.1,1.2-2.45,2.48-1,1.92.64,1.28-.35.54.2.58-1.16Zm-54-17L313.43,45l.52-.76.88-1.15,0-1.37-.28-.79,1-1.76,0-1.59-1-1.87.12-1.62,1-1.65,2.16-.4,1.16-.89h.52l.72-1.09-.69-.5-1.55,0-2.2.69-2.8-.15-1.08.19h-1.4l-2,.54-.84.83-1.44.39-.24.43-2.51-.07-1.8-.32-.56-.47-1-.25-2.88.25-.8.43-.64.07-2.68.94-1-.22-1.6-.36-.32.79,0,1.87-.72.4.13,1.12-1.09.35-1.15.18-1.1-.18,0,.1-.75.26.25,1.52.92,1.65.37,1.31-.26,1.06-.15,1.93,2.35.09L289.4,46l1,.43-.08,1.37.4.76-.56.32h-.59l-1.09.5L288,50.78l-.8,1.15h-.15l.29.36.8.69.13,1.78-.3.8.5,0,1.84.72,1.12.79h.4l.76.44,10.95-6.19ZM283.81,73.9l.64-.91,0-.15-.06-.65.54-.5V70.55l.42-1.24,0-1.47.36-.2V66.56l.26-1.13,0-.76.21-2.17-.41.12h-.68l-.92.43-.52-.46.24-1.55V58.7l-.32-.51.28-1.36h1.32l.12.79.56.07.66-.54,0-.57h.14l-.25-.44-.23-.87.32-1.48.27-1.26.3-.59-.55,0-.6,1-1.76,0-.67-.12-1.18,1.2-.42,3.63-1.6,2.87-1.72,2.08.61.25,1.09,1.45.58,1.85,1.57,2.13,1.22,2.6-.48,1.22Zm2.33-11.4.19-1.86,0-.75.12-1.34.2-.46-.12-.62,0-.32-.66.54-.56-.07-.12-.79h-1.32l-.28,1.36.32.51V61l-.24,1.55.52.46.92-.43h.68Zm-2.72-9.57.67.12,1.76,0,.6-1,.76,0,.8-1.15.43-1.37,1.09-.5h.59l.56-.32-.4-.76.08-1.37-1-.43L288.89,45l-2.35-.09,0,.27-.75.15-.26,3.55-.92,1.29-1,1.28v1.37Zm1.07,20,0,.49-.47,1.24,0,.2,1.72-.07,5.61,1.45,4-3.53,4.25-.58.15-1.44,2.33-2.52L295.85,62l8.25-2.31,2-1.87.28,0-2.83-6.53L292.6,57.55l-.76-.44h-.4l-1.12-.79-1.84-.72-.55,0-.68.54-.36.5-.44,0,0,.89.12.62-.2.46-.12,1.34,0,.75-.4,4,0,.76-.26,1.13v1.08l-.36.2,0,1.47L285,70.55v1.14l-.54.5.06.65,0,.15Zm72.74,3.71-3.39,1.42-.31-1.84-5.08-1.4-11.21-.17L311.3,58.43l-5.2-.57-2,1.87L295.85,62l6.25,6.13-2.33,2.52-.15,1.44-4.25.58-4,3.53-5.61-1.45-1.72.07-.15,1.84.08,2.12-.58,1.43.12.53.8-.26.25.37.72-.45,1.25.64-.33.19,2.43,2.46.25,1,.55.23.21,1,1.21,1,.59,0,1.6,2.46,0,.79.42.87.88.15.25,1.25.55.68,1.25.49,1,2.38.8.49.33,1.51-.33.64v.72l1.18.75,0,.83.76.42.84-.76,1.17.87,1.77.72,1.38,1.29.42,1.09.42.07.17,1.25.54.42.47,1.7,1.09.86.34,1.75.34.55-.42,1.64-.42.34.42.79.54,1.81.23,1.9,1,.79.17.69,2.83,2.72.94.35,1.12.08.75,1h.55l1.63,1.24.05.76,1.38.22-.17.72.72.27,1.3,4.3,1.17.65.09,1.28,4.19,3.81h.63l.38,2.16,1.76.45,1,2.56,1,.09.84.32.6-1,1.47-.86-1-1.69.72-2.38,1.48-.57,1.67,1.22,3.48.11,4.76,1.72,5,2.17.24,4.53,10.07-12.27L398,123.31l.8-10.89-1.27-4v0l-1.86,1.57-16.25-2.24-1.2-3.89-1.33-1.42,0-1.72,0,0-.29.11-.51-.79.05-.49.5-.57-.92.08-.15-.24h-.92l-1.8-.86-.23-.48-.3.18-.93-1.17-.25-1.29-2.81-3.17-.71-1.21.63.16V90.3l-1-2.42v-.56l-.71-1H366L364.24,84l-.67,0-.8-.79.09-.34.33-.08.46.27-.46-.61-.92-.15-1.89-.41-1.05-2.53-.59-1.21-.71-.34v-.83l-.38.19Zm25,50.9-.33,2.47,5,5.76-.72,2.16,3.19,3.42.74-.17.29.19h1.09l.72-1.06,1.22,0,2-1,1.11.08.94-.17.88.49.67-.06,1.34-1.78-.06-.21.27-.06.06-.58-.52-.27.1-.62-.14-.49.77-.69.51-.47,1.92,0,1.38-.2.67.24,1-1,.51-.41V131.7l2-2.22,1.26-.3.77.34.57-.36,2.76-.21.21-.49-.46-.37-.69-1.79.32-.06-.53-.9-.23-.06.36-.79v-.87l.94-1.62.64-.14-.39-.65.25,0,.67-1.1.54-.39.51.17-.28.49-.1.55.58.28.65,0,.63-1.9.65-.51.61-1.16,1.35-1.09,2.05-3,.19-.75-.1-.64.67-1.09.06-1-.35-.36-1-.16L420,108.13l-.5-.91-1-.79-.42-1.29-1.55-1.85-.76,0-1.38.27-2.47-.42-1.05,0-.72.3-1.38-.34-3.11-2.34-.16-.68-1.85-2-.3-3-1.08.14-4.72,13.19,1.27,4-.8,10.89-15.76,4.23Zm19.52-34.65-.16-1.77-.7-.2v-.44l.19-.47.29.32.3-.32.25-1.36.46,0,.37-.1.28.38-.23,0-.23.16.27.3-.21.57.25.13-.14,1.41-.46.79,0,.61ZM331,141.81l.35.92.51,2.52-.09,1.51h-.62v.54l-.89-.23.38.72h.59l0,.75,1.34,1.55.72,4.65,1.42,1.17.09,1.39-.59.35.59,1.35,1.17,1.14.21,1.24.46.84,1.14-.16.29-.34,1.55.46.92-.19,1.14-.87h1.09l.59.53,1.05-.38,1-1.32.55-.07.63-1.33,1.38-.79.72-.19.88,0,.21.3,1.59-.08.34.38,1.09.23,2.6-.91,2.1-.19.71-.52.13-.61,2-1.4.86,0,.69.49.79-.15.53-.45.33.28h.77l1.62-1.21,1.15-1.69,1-.46.59.06,6.12-1.63.54-.53,3.44-.56,2.18-1,1.1-.91,2.39-.45-.21-.57.16-.29-.46-.42.17-1.25,1.89-2.07,2.14-.42,1.23-.28-3.19-3.42.72-2.16-5-5.76.33-2.47-21,5.65-10.07,12.27-.24-4.53-5-2.17L341.25,137l-3.48-.11-1.67-1.22-1.48.57-.72,2.38,1,1.69-1.47.86-.6,1-.84-.32-1-.09Zm53.18,22.89,1.44.21,1.2-.15-1.48-.39-1.16.33Zm7.59-1.21.69.49,1.18.22,1.66-.24,1.2-.7.84-.06.42-.45-.08-.38-.88-.16-.74-.35-1.1.22-.78.2-.7-.14-.3-.51-.71-.09-.63.49-.11.77-.68.33Z"/><path class="cls-1" d="M284.85,204.66l.64-.77.43-.16.53-.65,1-.9.55.19,1.37-1.88,2.27-2.29.59.92,1.1-.2.85.13v3l1,1,1.07.19,1.25-.39,1.39.32,2.7-.15,1,.58,2.32,2,1.36.84.91.94.88.26h2l1.2.49,1.5-.19,1,.31h.81l1.09-.07,1.47-2.05.53-.65,1.18-.41.85.05.59-.34,2.59-.31.8.36.67,1.08.93.48,2.09-.31,1.46,0-5.15,4.41-.11,19.77,3.91,3.2-.08.31-1.82,2-.44.13-.65.64.33.49-1.9.6-1,1.26h-1.64l-.69.21-.1.36-.8.83,0,.6.36.25-.92,1.27-.9,1v1.13l-.82,1.59-2,2.63-1.17.43h-.48l-6.9-4.38-.48-.53-.21-.62.27-.48-1.12-1.68-20.36-10.7-1.56.08,1.45-4.88.22-1.39,1.06-.91.64-1.15.91-.77.42-.91.59-.53-.05-.43h1.92l.47-1.2V218l1.28-1.34.16-1.06-.37-1.06-.8-.62.48-.62-.64-.43-.75-.29-.69-1.54-1.28-1.1v-1l-.37-1.1-.74-.15.1-.86-.53-.29-.38-1.29-.53-.58,0,0Zm-14.42,26.68h2.1l2.15-.1-4.12.1Z"/><polygon class="cls-1" points="258.99 233.1 259.28 233.21 260.19 233.04 261.1 232.39 261.71 232.66 262.17 233.04 262.97 233.04 263.37 232.7 263.39 232 264.3 231.86 265.11 232.94 265.8 233.45 265.93 234.05 266.41 234.72 266.87 236.17 267.02 237.16 266.71 237.86 266.52 238.5 266.06 238.91 265.48 239.22 264.86 239.11 264.65 238.88 264.65 238.6 264.01 238.26 263.74 237.5 263.1 237.4 262.62 237.02 262.14 237.02 262.25 237.93 261.56 239.46 261.56 239.95 260.44 240.28 259.9 239.8 259.53 239.9 259.21 240.23 258.25 239.9 257.82 239.08 257.24 238.89 256.28 238.89 255.79 239 255.91 238.23 256.75 235.2 257.79 234.09 258.99 233.1"/><polygon class="cls-1" points="376.94 100.63 376.91 102.35 378.24 103.77 379.44 107.66 395.69 109.9 397.55 108.33 402.26 95.19 403.34 95.06 403.22 93.81 403.05 93.13 402.55 93.28 402.25 93.05 402.26 92.91 401.77 92.89 401.61 91.12 400.91 90.92 400.89 91.64 400.58 92.14 397.13 94 397.13 95.36 393.95 97.81 393.44 98.53 393.9 98.69 394.2 99.29 392.77 100.65 392.27 100.01 391.81 100.31 391.09 100.31 391.18 101.1 390.84 101.18 390.59 101.63 388.95 101.89 387.78 102.01 387.27 101.44 386.19 101.51 385.72 101.29 384.93 101.44 383.04 101.06 380.77 102.65 379.89 102.42 379.05 102.35 378.17 102.69 377.84 100.42 377.38 100.88 376.94 100.63"/><path class="cls-1" d="M230.76,8.18l1.2-.27.64-1.15-.24-1.08,1.44-.8.08-1.22-1.12-.43L233,1.86l.88-.87.88-.07.64-.65H237l1.53,1.08.79-.58,1.24.28.16,1.78,1.68,1.33,1.21.15,1.26,1.17L246,6v.65l-1,.86-1.38-.11-.76-.38h-1.26l-.5.42-1.89,0-1.13.42-.59,1.36-2.89,1.32-2.31,1.77-.09-.68.55-1.47.63,0,1.09-.64-1,.11-.67-.19-.63.15-.88-.48-.46-.87-.06,0Zm81.33-6.09-.25.33-.67,1.28-1.39.76-1.84.83L307.6,6l-1.72.12-.67.49-2.27-.46-.67-.37h-.8l-.33-.19-1.09.3L298,6l-2.36.87-1.88-.34-1.26-.79-.67.41-2.14-.94-1.09-.15-1.93-1.17h-.59l-.5.64-.93-.19-1-1.17L283.48,2l-.89-.68-.63.12-1.34,1.2-.46-.19-.5.31-2-1.67-.17-1L277.14,0,275.8.6H274L273.2.34,272.11.6,269.38.49,268,.75l-2.56,1-1.18.12-2.06.34-.58.72-1,.22-.92.87-.5.27-.55,1.2-.51.31.09.53-2,.11-2.94-1h-.92l-.67.45-1.22-.23-1.68.38-.84-.26-1.38.34-.25.68,1,1.51,1.56,0,1.3.19-.21.53-2.27,0-2,.53-.71.83.37.49,1.05-.3.42.57-.84.26-2.56,0L242.48,11l-1.3.53-.63-.83-.71,0-1,1-.92,0-1.34-1h-1.3l-2.52,1.74-.38.91-.42.87.42.64,0,1-.38.41.38.61,1.47-.45.42.15,1.09-.23,1.34,0-1.3,1.09.17.76.54.79,0,.6-.1.44.35.22,1-.58.08.51-.67.62-1.38.77.48.3.8.08-.8.47-.48.87h-.59l-.6-1.32-.42-.19-.19.83.38.92-.48.49.17.71.92.53.21-.41,1.09.83.84-.15,1.26.68.34,1.17-.88.79.71.61,0,.6.71,0,1.39,1.22-.51.79-.88-.23-.21.57.72.26,1.68-.37h2.35l-.17.41-.54.52-1.21.47-1.8-.07-.41.57.66.15.92-.27h1.24l.59-.27V34l.34.27.63-.72.75-.83.8,0,.55.6h.71l1.05.57.5-.64.84.11-.13.53-.42.19.51.68.12.68,1.18.87.42-.19,1.26.46,1.34-.19.63-.46h1.09l.63-.49,1,.45.67-.33L257,34.33l.21-.6-.21-1.1,2.35-.18,2,.15,2.69,1.24h1L266.78,36l1.51.87,5-.57,1.51-.57h.5l.26.23.71-.45.25-.84,2.39-2.45.59-.11,2.27.72,1.38.56,1.72-.3.13-.45,1.21-.8.93.27.13.72-.85,1.2-1.09.8.05.49,1,1.06-.22.69,1.1.18,1.15-.18,1.09-.35-.13-1.12.72-.4,0-1.87.32-.79,1.6.36,1,.22,2.68-.94.64-.07.8-.43,2.88-.25,1,.25.56.47,1.8.32,2.51.07.24-.43,1.44-.39.84-.83,2-.54h1.4l1.08-.19,2.8.15,2.2-.69,1.55,0,.45.33,1.52-1.12h1.31l.56-.4h2.28l1.92.43,1.44-.36.76.44,0,1,.92.39,1.23-.32.29-.86-.52-1.16L330.38,26l-1.48-.5.12-.58-.08-1.44.72-1.51-.36-.61L328,21.17l0-1.37.16-.94L327.62,17l-.6-1,0-.5,1.56-.11.56-1.33.6-.47-.64-.94-1-.86-1.08.07-1.72-.07L323.7,11l-.08-2L324,7.42l-.6-1-1-.22-.08-.61-1-.94-1-.21L318,2.63l-.92-.21-.8.61-.68.11-1.44-.51-.52.61L313,3.07l-.24-.9-.7-.08ZM241.38,34.43l.38-.36.46,0,.12.36-.48.13-.48-.15Zm-12.24-22.3.86.31,1.1-.27.16-.54-.52-.31-.58.4-.8,0Z"/><polygon class="cls-1" points="283.81 73.9 283.09 72.21 283.57 70.99 282.35 68.39 280.78 66.26 280.2 64.41 279.12 62.96 278.5 62.71 277.78 63.59 276.27 64.11 272.74 63.59 269.97 64.26 267.95 62.98 267.7 63.83 268.45 64.86 268.41 65.5 267.66 64.47 266.52 63.91 266.27 63.04 266.82 62.81 266.36 62.4 265.43 62.51 264.3 62.17 262.41 61.72 262.12 62.02 262.92 62.17 263.08 62.51 262.04 62.62 260.98 62.51 259.77 62.96 259.39 62.62 259.42 62.39 260.49 62.28 261.36 61.94 260.25 62.07 258.69 62.11 258.02 62.54 256.54 63.27 255.83 63.61 254.4 64.02 253.22 65.04 253.01 65.5 251.17 65.5 249.15 64.36 247.85 64.25 245.97 64.36 244.37 63.46 243.74 63.46 243.07 63.83 241.52 62.85 239.71 62.51 235.39 62.21 233.25 61.57 230.48 61.68 229.94 61.83 229.94 61.83 229.58 62.66 229.1 64.77 229.74 66.11 229.74 67.22 228.94 68.94 228.3 70.53 228.99 71.87 229.58 74.41 231.49 114.01 297.8 113.55 297.82 113.45 296.86 113.11 295.56 111.93 295.22 111.31 294.07 111.01 293.36 109.69 292.69 109.97 291.64 109.93 289.93 108.94 289.07 106.33 289.27 105.63 289.19 104.4 288.84 103.74 288.95 103.29 289.37 103.61 291 103.7 290.37 103.09 289.84 103 288.93 101.74 288.57 101.5 288.51 101.83 287.88 101.16 287.4 99.82 285.19 96.91 284.27 96.38 284.01 94.98 280.53 90.37 280.57 89.31 279.99 88.48 279.78 86.56 279.19 85.92 279.19 85.35 277.3 83.5 277.22 82.78 277.43 81.99 276.97 81.2 273.74 78.74 273.48 77.94 271.43 75.76 271.43 74.62 270.25 73.26 270.38 72.58 270.3 71.9 270.55 71.56 270.76 71.87 271.3 71.87 271.68 73.15 272.18 73.68 272.31 74.32 274.45 75.95 274.45 76.93 275 77.91 276.46 78.51 276.8 79.46 279.44 81.99 280.91 82.71 281.08 83.01 281.29 82.4 282.05 81.76 282.46 79.99 281.96 79.53 282.63 78.02 282.76 76.97 283.6 74.21 283.81 73.9"/><path class="cls-1" d="M182.27,372.84l.8-.42,1.16-.22v-.61l-.36-.29.56-.9,1.36-.46.64,1,1.08,0-.48,1.08.8,1.48,1.88.36,1.2.58.88-.18.6.21,1,.14.44-.39h.84l.4.68.8-.11.68.15,0-1,.48-.44.67-.21.52-1,1.48-.68,1.76.11H202l.76-18.1,1.84,1.22.56,1.37,1.44,2.81,0,1.37-.8,1.6,0,.95,1.48-.18,1.48.25.88-.36,1.31.18.89-.54,1.15-.25,1.08-.76.4-.61,1.84-.65,1-1,.88-2,1.48-1.19,1.36-.14,1.88.25.56.65.64,0,2,1,.88-.14,1,.29,1.15-.26h1.32l.88-.1.44.5.68.25,1.24-.72-.32-.4.32-.89v-.62l.52-.5-.08-1.33.48-.83,1.16-.18.76-.46.75-.1.34-.43.36-.23.28-.67.78-.58.6-.14.36-.42.76-.14v-.79l-.28-.39.15-1.23,1.49-1.79.79-.33.57-.14.43-.47.8-.25.24-.47.68-.36.56-.5,1.2-.91,1.12-.17.36.21.52-.1.92,0,.76-.65.8-.14.32-.78-.12-.49.58-.45,1,0,.52-.36,2.54-.32,1.29.2.38.66.86-.05,1.18.51.38.32.8-.29,1.52-.2,1.87.35L266,341l.32,1.37.32,1.3.66,1.23,0,2.33-.1.29,0,1,.36.95.34,1.14-.05,3.89-.4,1.55-.08,1.44,0,1.69-.92-.36-.88-.69-1.4-.71-1,.43-.24,1-1.36,2.27-.48,1.19.32.61.6.5.64,1,1.81.91,2.14.1.86-.28.28-.86-.1-.76.66-.42.9-.18,1.93.42,1.1,0v.24l-.68.8.34.11-.67,1.81-.17,1.56-.83,1.49-.54,1.92-.8.87-.25.88-1.52,1.62h-.49l-.33.44-1.13.47-.52.58-1.34.77-.68,1.19-1.09,1.14v.48l-.63,1.07-1.05,0-.84,1.48-2.31,3.47L255,387.23l-.29,1.39-1,.4-1,1.05-.57,0-.25.4-5.79,5.14-.71.11,0,.27-.94.94-3.81,2.2-.82.81-1.34.36v.32l-2.12.5-1.22.68-1.25.1-.6-.41-1.69.06-1.41.38-.59.92.83.63-.07.26-1.94,0-1.13-.52-.91-.09-.78.71.34.64-.36.3-2.66-.51-.76-.52-2.55-.58-1.67.3,0,.36-.88.28-1.3-.62-3,0-.88.36-.27.83-.58-.25-.69.17-.61.45-.34.4-1.32.08-.85.33-1.64-.52-1.38.07-.27.36-1.34-.26-1.19,1.22-1,.17-.36.71-.58-.18-.53.22-2.76-1.17-.56.31-.07-1.21-1-.49-.8.36-.52-.21.46-.34-.29-1-1.3-.21-.92.74.06.92-.71-.47-.06-1,.39-.85-.25-1.26.76-1.11-1-1.6-1-.79-.84-1.3v-1.28l.59-.49.54.51h.51l.64-.64.34-1.55-.61-1.67.11-.76-1.6-2.38,0-1.09-1.55-1.82-.72-2.9-1.17-2.76,0-1.4-1.17-3.06-1.81-1.17-.29-1.63,0,0Zm59.26,9.69.81.61.58.73,1.28.46,1,0,.3-.51.38-.41.48-1.21,1-.26.72-.43,1-.16.66.18,1-.61.26-.8-.44-.36-.1-.6,1-.44,1-.78-.06-1.21-.88-1.94-1.2-.83-.86.22-.81-.52-.31.21-.55-.34-.78,0-.2.4-.7.38-.48.49-2,.31-1.24,1-.52,1.3-1.47,1-.74.47.46,1,.65.57.13.51.67.69Z"/><polygon class="cls-1" points="502.9 53.7 503.23 53.37 504.87 50.92 506.51 49.59 507.9 49.52 508.62 48.33 509.78 48.33 512.82 50.17 514.42 49.38 515.94 49.92 516.5 51.29 517.9 51.21 520.14 52.47 521.77 50.92 522.69 51.21 522.9 51.9 523.61 50.85 523.26 49.05 522.61 46.86 521.17 46.53 520.09 44.3 520.22 41.93 519.42 40.67 517.54 39.84 516.1 38.33 515.14 35.88 513.34 35.02 511.18 34.37 510.94 33.22 509.9 32.97 507.71 33.01 505.47 32.75 504.91 32.07 503.95 31.46 503.9 30.12 502.43 29.23 499.91 25.99 499.31 24.4 498.47 23.69 497.79 23.65 497.27 24.15 496.63 24.55 495.71 24.48 495.15 24.84 494.11 24.01 493.35 24.19 492.84 24.48 492.89 24.49 491.77 26.22 489.29 27.16 485.35 27.87 485.72 28.72 483.04 30.34 483.28 32.32 484.08 33.01 484.88 32.72 486 32.36 487.12 33.62 488.64 34.77 490.12 35.56 490.43 36.57 492.03 36.96 492.07 38.19 490.51 39.09 490.36 40.13 489.44 40.49 489.47 42.04 490.48 43.51 491.35 46.9 491.63 48.37 493.63 50 495.71 50.45 497.65 51.18 498.33 52.46 500.01 52.78 501.36 52.31 502.76 52.62 502.9 53.7"/><path class="cls-1" d="M520.17,52.44l.37.65.08.82,1.47.68-.23,1.95.59.93-.36.62.6.36.68.86v.76l.52.14.36,1.08,1.24.54.64-.94,1.24,0,.52.54,1.28.18,1.08,1,.84.26.64,1.18,1,.15.4.82.08-.1.15,1.72-.88,2.67v1.66l-1.28,1.73.33,1.25,1.2.11,1,.71,1,0,1,.61,1.95.5,2.56,1.52,1.68,1.87,2.16.43,1,.67h1.53l1.84,1.08,2.8-.21,1,.79,2.88-.72,2.64.57.33,1.3,1.44,1.16,3,.72,1-.51,1.92-.07,4.81,1.58,1.2-.57,2.08,1,3.44-.65.4-2.31-1-1.94.48-2.38-.36-1.07h.14l1-.79,1.28-.14.64,1,.08,1.26,1.08.72.06,0-.14,1.15-.4.82,1.08,1.55,1.88.36.76-.43,2.71,1.4H588L589.13,84l1.24-.14,1.16.46,2-.5,1.52.07,2.24-.64,0-.8V81l-1.71-.68-.16-1,.36-1.21.76,0,2-.43.91-.07.56-1.21.82-.56.86.25,0-.65,1.16-.29.38-1,.92-1,1.2-.16,2-.43L608.64,71,608.56,70l.8-.14,1.24-.8,1,1.3L613,70l2.13.61.59-.5-.16-.9,2.4-1.26.88.25.6.72.76-.18.24.47-.8,1.37.44.79.68-.18.72-.18.24.76.8,1v.68l-.88.86.28.83,1.2.18.68-.25,1,.4,1.12,1,.12.75L625,78.1v1.33l.28.82-1.08-.43-.92-.68-1.56,1-1.8.51-.56,1.19-1.32,1.47-1.23.4L615,86.3l-.28,1.19.56.64-.76,2L613,92.38l.07.76,1.32.57-1.19,2.63-.52,2.12-.88,1.88-1.48,0-1-.29-1.16-.07.68,2.45,0,1.29-.12,1.8-1.16-.14.2,1.33-.2,1.22.28,1-.64,1.66-.6.28-.52-.21-.24.93v.55l-.21-.19-.27-.4-.05-.54-.23-.34-.4-.77-.44-1.33-.32-2-.4-.76v-1l-.36-1.41-.49-.7-.28-.47-1,.07-.7-.43-.5.36.34.47-.32.45,0,.54-.58.76.36.26-.1.79-.57,0-.86-1-.88-.76-.22-.51-.56-.46-.56-1.34v-.6l.44-.34.18-.65,1.07-.67.4.36.61.1.45-.5v-.65l.67-.32.72-1.66.2-1.22.6-1L601,94l-1-.9-.64.15L599,93l-.93.08-1.87.07L594.53,93l-2.24.14h-1.44l-1.16-.47-1,.08-1-.37,0-.72-.44-1.08-.16-.61-.24-1.18-.76-1.23-.56.11-.08.36-1.08-.32-.56-.51-.79-.61-.48,0-.24.58.8.43-.56.25-1.17-.14-.79-.9,0-.54-.76-.79-.44-.58-.32.72-.48,0,0,.68.56.44L578.66,88l-1.08,1.12-.16,1.18,2.6.83,1-.36,1.44.11-.24.61.32,1.3-.73.5-.67-.21-.8.43-.48,1.33-1,.22,0,2L580,98.35l1.44.51,1.36,1.54v1.66l.51,1.26-.2.9.28,1.55,1.6,2,0,1.36.38.83.16,1.56-.26.08.63,1.13-.59.9-.86-.83v.55l-.6-.3-.4-1.14-.22-.57-.14.43-.16.57-.12-.24-.21.34h-.87l-.1.17-.92-.29-.29-1.24.23-.75-.84-.68h-1l.08.28.65.15.44.47-.34.29-.33.69-.09.72-.81.83L575,114.24l-.59.44-.23.75-.54,1,.18.6.59,1.06-.06.32.35.15-1.25,1-.29.9-.59.06.23.62-2,1.3-.1.64-3,1.4-.33-.38,0-.52-.23-.24h-.42l-.94.68-.59.08-.25,1.32.9-.33.29-.34.51.23-3.78,3-1,2.38-5,3.58-.75,1.29-1.13,1-2.1.64L551.38,138l-.18,1.06.22,1.17-.93,1.21-1.3.76-2.47-.35-1.09.84v1.05l-1.51,1.74-.84-.07-.59-.76h-.46l-1.85,1.66-.54.91,0,1.77.92,2.46-.88.9.17,1.37v3.85l1.38.41.21,2.46-1.26,3.28L539,166.07V168l.54.76.43,4.16V174l-1.06.36-.57-.24-1.46.2-.63,1,.27.41-1.42,1.7-.51.57.17.64,1.81.83.21.29,0,.36-.25-.46-.86-.29-2.37.75-.37,0-1.93.75-.63.91-.09.53-.25.23.25.37-.5,1.33-2.18,1.21-1.81-.16-1.68-1-1.63-1.74-2-3.7-.13-2.08-.59-1.89-1.26-2.08v-.94l-.46,0-.54-1.4-.51-1.7-1.63-1.7-1-1.39-.42,0-1.51-1.44-.67-1.28-.5-.42-.17-2.07-.63-.87-1-2.27-.29-1.55-.59-1.09-.59-.79-.12-1.82-.34-.08-1.42-1.47v-.57l-.38-.07-1.3-2.12,0-.64-.72-.37-.42-1.48-.92-.53-.88-2.15,0-2.79-2.35-4.12v-1.36l-1.05-1.44,1.21-.07-1.63-1.89,0-1.06.76-.15-.59-.72-.08-.9-1.68-2.72-.25-1.7,1-.46-.88-.45,0-.87.59-1.13-.12-1.43-.52-1.45-.63-.38-.48-2.35,1.19-.66.42-.56h.9l-1-.2-1.3.17-.69,0,.12-.95L494,112l.19-1,.29-.21.73.15.92-.83.44-.64-1,.55-.67-.29-1.34.15-.42-.8-.14.62-.07,1-.79,1.92.81.92-.18,1.77-.86.79,0,.55-1.89.86-2.86,1.6-1.34.42-2-.4L479.51,116,477.75,114l0-.36-.52,0-.73-.36-2.45-2.2-.21-.68.21-.55.67,0,.21.3.67-.19,0,1.11.92.1.61-.47.35,0,.61.34.12-.38,2.28-1.62h.69l1.07-1.47.34,0,.44-1-1.13-.07-.34-.17.17.32-.11.43-2.3.89h-1.34l-1,.32-3.61-1.14-1.72-1.62-.71-.3.08-1,1.09-1.29,1.22-.6-1.55.22-1.55.89.06-1.29,1.16-.68.76-.18.47-1.26.85.18.92-.44,3.79.19,2.2-.72.44-.44,1.28-.35-.44.72.52.57L483.4,99l1-.33-.44-.46.16-.72-1.24-3.17-1.08-1.29.28-.69-.76-.58-1.08.08-1.8-1L478.24,89l.08-1.23-.8-1.54-1,0-.61.29-1.32-.4-.92,0V84.86l.89-2,.83-.25,1.48-1.91.25-.86,1-.46.72-.48,1.2.48.24,1,.8.14,2.08-1,2.92-.14,1.76-1.77,1.08-3L491.47,73l.64-1.08.24-1.62,1.24-1.58,1.8-.79.6-1.23,0-.93-.72-.5,1.6-1.59.88-.61.16-1.19.28-2.48-.56-1.84-.32-.43L499,55.64l1-.32,1-.62.68.11,1.44-1.44,1.64-2.45,1.64-1.33,1.39-.07.72-1.19h1.16l3,1.84,1.6-.79,1.52.54.56,1.37,1.4-.08,2.24,1.26,0,0Zm63,60.71V114l.36-.34-.36-.52Zm-.56-.36-.64.31.22.57.38.25.12-.61-.08-.52Zm-1.53.2.12,1,.6.4-.16-.9-.56-.47Zm-1.56.32,0,.51.4-.18.52-1.19-.36-.5Z"/></g></g></svg>