<?xml version="1.0" encoding="utf-8"?>
<!-- Generator: Adobe Illustrator 26.0.1, SVG Export Plug-In . SVG Version: 6.00 Build 0)  -->
<svg version="1.1" id="Layer_1" xmlns="http://www.w3.org/2000/svg" xmlns:xlink="http://www.w3.org/1999/xlink" x="0px" y="0px"
	 viewBox="0 0 147.9 202.8" style="enable-background:new 0 0 147.9 202.8;" xml:space="preserve">
<style type="text/css">
	.st0{fill:#00E47C;}
</style>
<g>
	<path d="M72.4,201.5c-1.7-1.4-3.6-2.6-5-4.2c-16.8-19.5-32.1-39.9-45-62.2c-7.5-12.9-14-26.3-18-40.8c-6.1-21.7-3.3-42.2,9.3-60.9
		c12-17.8,28.9-28.4,50.2-31.4c20.9-2.9,39.7,2.4,56,15.7c14.4,11.7,22.9,26.9,25.8,45.3c2.3,14.3-0.5,27.9-5.4,41.2
		c-6.6,17.8-16.1,34.1-26.6,49.9c-10.1,15.1-21.3,29.5-33.2,43.3c-1.4,1.6-3.3,2.8-5,4.2C74.5,201.5,73.4,201.5,72.4,201.5z
		 M74,110.3c20.2-0.1,36.5-16.4,36.4-36.5c0-20.2-16.6-36.7-36.7-36.5c-20.2,0.2-36.4,16.6-36.3,36.6C37.6,94,54,110.4,74,110.3z"/>
	<path class="st0" d="M76,202.8h-4.1l-0.4-0.3c-0.5-0.4-1.1-0.8-1.6-1.2c-1.2-0.9-2.5-1.9-3.6-3.1c-18.6-21.6-33.4-42-45.1-62.4
		c-8.8-15.3-14.6-28.4-18.2-41.1c-6.3-22.5-3.1-43.3,9.5-62C24.9,14.5,42.1,3.8,63.7,0.8c21.2-2.9,40.4,2.4,57,16
		c14.5,11.8,23.3,27.3,26.3,46.1c2.1,13,0.3,26.3-5.5,41.8c-5.8,15.5-14.3,31.4-26.8,50.1c-9.7,14.5-20.9,29.1-33.3,43.4
		c-1.1,1.2-2.3,2.2-3.6,3.1c-0.5,0.4-1.1,0.8-1.6,1.2L76,202.8z M72.9,200.2h2.2c0.4-0.3,0.9-0.7,1.3-1c1.2-0.9,2.3-1.7,3.2-2.7
		c12.3-14.3,23.5-28.8,33.1-43.1c12.5-18.8,20.7-34.1,26.5-49.6c5.6-15.1,7.3-28,5.3-40.5c-2.9-18.1-11.4-33.1-25.4-44.4
		C103,5.8,84.5,0.6,64.1,3.4C43.2,6.3,26.7,16.7,14.8,34.2C2.7,52.2-0.4,72.3,5.7,94c3.5,12.5,9.2,25.3,17.9,40.5
		c11.7,20.2,26.3,40.5,44.8,62c0.9,1,2,1.8,3.2,2.7C72,199.5,72.4,199.8,72.9,200.2z M73.8,111.6c-10,0-19.4-3.9-26.5-11
		C40.2,93.5,36.2,84,36.1,73.9C36,53.2,52.9,36.2,73.8,36c10,0,19.5,3.8,26.7,10.9c7.3,7.2,11.3,16.7,11.3,26.9
		c0,20.8-16.9,37.7-37.8,37.9l0,0C74,111.6,73.9,111.6,73.8,111.6z M74.1,38.6c-0.1,0-0.2,0-0.3,0c-19.4,0.2-35.1,16-35,35.3
		c0,9.4,3.8,18.2,10.4,24.8c6.6,6.6,15.4,10.2,24.6,10.2c0.1,0,0.1,0,0.2,0l0,0c19.4-0.1,35.1-15.9,35.1-35.2
		c0-9.4-3.7-18.3-10.5-25C92,42.2,83.3,38.6,74.1,38.6z"/>
</g>
</svg>
