<?xml version="1.0" encoding="utf-8"?>
<!-- Generator: Adobe Illustrator 24.3.0, SVG Export Plug-In . SVG Version: 6.00 Build 0)  -->
<svg version="1.1" id="Layer_1" xmlns="http://www.w3.org/2000/svg" xmlns:xlink="http://www.w3.org/1999/xlink" x="0px" y="0px"
	 viewBox="0 0 147.9 202.8" style="enable-background:new 0 0 147.9 202.8;" xml:space="preserve">
<style type="text/css">
	.st0{fill:#00E47C;}
</style>
<g>
	<path d="M73.6,198c-0.2-0.2-0.5-0.4-0.7-0.6c-1.1-0.8-2.1-1.6-2.9-2.4c-18.3-21.3-32.9-41.4-44.6-61.6c-8.6-14.8-14.2-27.5-17.7-40
		c-5.9-21-2.9-40.5,8.8-58c11.4-17,27.5-27,47.8-29.9c3.5-0.5,7-0.7,10.4-0.7c15.7,0,30.1,5.3,42.9,15.7
		c13.5,11,21.8,25.5,24.6,43.1c1.9,12,0.3,24.5-5.2,39.4c-5.6,15.2-13.7,30.3-26.2,49.2c-9.5,14.3-20.3,28.3-32.9,43
		c-0.7,0.8-1.8,1.6-2.8,2.4c-0.2,0.2-0.4,0.3-0.6,0.5C74.1,198,73.9,198,73.6,198z M73.7,33.8C51.6,34,33.8,52,33.9,73.9
		c0.2,22,18.1,39.9,39.9,39.9H74c10.7-0.1,20.7-4.2,28.3-11.8c7.5-7.6,11.7-17.6,11.6-28.2c0-22-17.9-40-39.8-40L73.7,33.8z"/>
	<path class="st0" d="M74.8,1.2v7c14.9,0,28.5,5,40.7,14.9c13,10.6,20.6,24,23.3,41c1.8,11.4,0.2,23.3-5.1,37.7
		c-5.5,14.9-13.5,29.9-25.9,48.4c-9.5,14.1-20.1,28.1-32.7,42.6c-0.3,0.3-0.7,0.7-1.2,1.1c-0.5-0.4-1-0.8-1.3-1.2
		c-18.2-21.1-32.6-41.1-44.2-61.1c-8.4-14.5-13.9-27-17.3-39.2c-5.6-20-2.8-38.5,8.4-55.1C30.4,21.2,45.6,11.6,64.9,8.9
		c3.4-0.5,6.7-0.7,9.9-0.7L74.8,1.2 M73.8,117.3l0.2,0c11.6-0.1,22.5-4.6,30.7-12.8c8.2-8.2,12.7-19.1,12.6-30.7
		c0-24-19.4-43.5-43.3-43.5l-0.4,0c-24,0.2-43.3,19.8-43.2,43.7C30.6,97.9,50.1,117.3,73.8,117.3 M74.8,1.2c-3.6,0-7.2,0.3-10.9,0.8
		C42.6,5,25.7,15.6,13.7,33.4C1.1,52.1-1.7,72.6,4.4,94.3c4,14.5,10.5,27.9,18,40.8c12.9,22.3,28.2,42.7,45,62.2
		c1.4,1.6,3.3,2.8,5,4.2c1,0,2.1,0,3.1,0.1c1.7-1.4,3.6-2.6,5-4.2c11.9-13.8,23.1-28.2,33.2-43.3c10.5-15.8,20-32.1,26.6-49.9
		c4.9-13.3,7.7-26.9,5.4-41.2c-2.9-18.4-11.4-33.6-25.8-45.3C106.5,6.8,91.4,1.2,74.8,1.2L74.8,1.2z M73.8,110.3
		c-19.9,0-36.2-16.4-36.4-36.4c-0.1-20,16.1-36.4,36.3-36.6c0.1,0,0.2,0,0.4,0c19.9,0,36.3,16.4,36.3,36.5
		c0.1,20.1-16.2,36.4-36.4,36.5C73.9,110.3,73.9,110.3,73.8,110.3L73.8,110.3z"/>
</g>
</svg>
