<?xml version="1.0" encoding="UTF-8"?>
<svg xmlns="http://www.w3.org/2000/svg" viewBox="0 0 24 24"><path fill-rule="evenodd" d="M12 2C6.486 2 2 6.486 2 12s4.486 10 10 10 10-4.486 10-10S17.514 2 12 2zm0 19c-4.962 0-9-4.037-9-9 0-4.962 4.038-9 9-9 4.963 0 9 4.038 9 9 0 4.963-4.037 9-9 9z" style="fill: #00e47c;"/><path fill-rule="evenodd" d="M15.801 10.694L9.945 7.842 8.5 8.46v6.511l1.578 1.187L15.8 13.37c1.115-.543 1.115-2.132 0-2.676zm-.438 1.777L9.5 15.35v-6.7l5.863 2.943c.366.179.366.7 0 .878z" style="fill: #00e47c;"/></svg>
