<?xml version="1.0" encoding="UTF-8"?>
<svg xmlns="http://www.w3.org/2000/svg" version="1.1" viewBox="0 0 336.16 336.09">
  <defs>
    <style>
      .cls-1 {
        fill: #fafaf9;
      }
    </style>
  </defs>
  <!-- Generator: Adobe Illustrator 28.7.1, SVG Export Plug-In . SVG Version: 1.2.0 Build 142)  -->
  <g>
    <g id="Layer_1">
      <g>
        <path class="cls-1" d="M168.67,0C75.74-.28.39,74.7,0,167.84c-.39,93.1,74.93,168.51,169.26,168.25,91.83-.25,166.2-74.21,166.9-166.4C336.87,75.88,261.88.28,168.67,0ZM168.33,312.21c-79.86,0-144.38-64.59-144.31-144.45.07-79.32,64.8-143.82,144.28-143.74,79.29.07,143.97,64.65,143.94,143.7-.03,79.87-64.39,144.49-143.91,144.49Z"/>
        <path class="cls-1" d="M212.54,110.59c.78-.78,1.52-1.59,2.4-2.52-.64-.69-1.11-1.23-1.62-1.75-4.42-4.42-8.95-8.74-13.21-13.31-1.75-1.88-2.61-1.29-4.09.19-24.28,24.36-48.59,48.68-72.95,72.96-1.43,1.43-1.72,2.2-.12,3.8,24.47,24.35,48.88,48.75,73.22,73.22,1.77,1.78,2.59,1.42,4.08-.14,4.06-4.25,8.16-8.47,12.49-12.44,2.12-1.94,1.94-2.95-.03-4.91-18.39-18.22-36.62-36.6-55.02-54.81-2.12-2.1-2.45-3.13-.13-5.43,18.42-18.19,36.68-36.55,54.98-54.85Z"/>
      </g>
    </g>
  </g>
</svg>