<?xml version="1.0" encoding="UTF-8"?>
<svg xmlns="http://www.w3.org/2000/svg" version="1.1" viewBox="0 0 336.16 336.09">
  <defs>
    <style>
      .cls-1 {
        fill: #fafaf9;
      }
    </style>
  </defs>
  <!-- Generator: Adobe Illustrator 28.7.1, SVG Export Plug-In . SVG Version: 1.2.0 Build 142)  -->
  <g>
    <g id="Layer_1">
      <g>
        <path class="cls-1" d="M167.7,1.25C75.38,1.37.84,76.2,1.25,169.1c.41,91.5,74.02,165.34,165.45,165.73,93.57.41,168.42-74.34,168.2-166.79C334.68,75.64,259.99,1.14,167.7,1.25ZM167.5,311.13c-79.14-.24-142.69-64.52-142.49-144.12.2-78.62,64.81-142.16,144.32-141.92,78.05.24,142.13,65.07,141.74,143.38-.4,79.2-64.51,142.9-143.57,142.66Z"/>
        <path class="cls-1" d="M207,160.51c-21.99-22.07-44.04-44.08-66.08-66.1-.85-.84-1.49-1.99-3.53-2.51-.28.44-.65,1.28-1.24,1.89-4.09,4.16-8.1,8.41-12.41,12.33-2.18,1.98-1.78,3,.1,4.87,18.24,18.09,36.34,36.33,54.61,54.4,2.17,2.14,2.29,3.17.04,5.39-18.28,18.06-36.35,36.32-54.62,54.39-2.16,2.14-1.95,3.23.1,5.13,4.01,3.71,7.92,7.54,11.57,11.59,2.07,2.3,3.2,2.25,5.4.03,21.94-22.12,44.01-44.11,66.03-66.15,2.45-2.45,6.62-4.85,6.79-7.48.2-3.02-4.26-5.28-6.76-7.79Z"/>
      </g>
    </g>
  </g>
</svg>