<?xml version="1.0" encoding="UTF-8"?>
<svg xmlns="http://www.w3.org/2000/svg" version="1.1" viewBox="0 0 336 336">
  <defs>
    <style>
      .cls-1 {
        fill: #fafaf9;
        fill-rule: evenodd;
      }
    </style>
  </defs>
  <!-- Generator: Adobe Illustrator 28.7.1, SVG Export Plug-In . SVG Version: 1.2.0 Build 142)  -->
  <g>
    <g id="Layer_1">
      <path class="cls-1" d="M202.54,315.24c-11.09,2.59-22.66,3.96-34.54,3.96s-23.45-1.37-34.55-3.96l-15.54-80.04h-17.11v-16.8h134.4v16.8h16.8v-16.8h58.6c-14.91,42.18-48.01,75.78-89.87,91.36l14.48-74.56h-17.11l-15.54,80.04ZM315.45,201.6c2.45-10.81,3.75-22.05,3.75-33.6s-1.3-22.79-3.75-33.6h-63.45v67.2h63.45ZM235.2,201.6v-67.2H100.8v67.2h134.4ZM84,201.6v-67.2H20.55c-2.45,10.81-3.75,22.05-3.75,33.6s1.29,22.79,3.75,33.6h63.45ZM25.4,218.4c14.91,42.18,48.01,75.78,89.87,91.35l-14.48-74.55h-16.8v-16.8H25.4ZM100.8,100.8v16.8h134.4v-16.8h-17.11l-15.54-80.04c-11.09-2.59-22.66-3.96-34.55-3.96s-23.45,1.37-34.55,3.96l-15.54,80.04h-17.11ZM310.6,117.6h-58.6v-16.8h-16.8l-14.48-74.55c41.86,15.58,74.96,49.17,89.87,91.35ZM25.4,117.6h58.6v-16.8h16.8l14.48-74.55c-41.86,15.58-74.96,49.17-89.87,91.35ZM336,168c0,92.78-75.22,168-168,168S0,260.78,0,168,75.22,0,168,0s168,75.22,168,168Z"/>
    </g>
  </g>
</svg>