<?xml version="1.0" encoding="UTF-8"?>
<svg xmlns="http://www.w3.org/2000/svg" version="1.1" viewBox="0 0 378.96 114.44">
  <defs>
    <style>
      .cls-1 {
        fill: #033;
      }
    </style>
  </defs>
  <!-- Generator: Adobe Illustrator 28.7.1, SVG Export Plug-In . SVG Version: 1.2.0 Build 142)  -->
  <g>
    <g id="Layer_1">
      <g>
        <path class="cls-1" d="M24.66,100.5c-7.84-5.65-11.99-9.8-15.9-15.79C3.11,75.95,0,65.35,0,54.86,0,24.55,24.43,0,54.74,0s54.74,24.55,54.74,54.74c0,12.45-4.26,24.89-11.76,34.11-3.11,3.92-5.76,6.22-12.91,11.64v-32.04h5.42v21.9c4.03-4.73,5.99-7.61,7.95-11.06,4.03-7.15,6.22-16.02,6.22-24.55,0-27.66-22.24-50.13-49.67-50.13S5.07,27.08,5.07,55.09c0,12.79,4.5,24.09,14.06,35.27v-21.9h5.53v32.04ZM35.5,106.03c-1.04-.23-3.46-1.38-5.42-2.42v-35.15h5.42v37.57ZM68.46,28.81l-13.71-10.6-13.71,10.6-3-3.92,16.71-13.02,16.71,13.02-3,3.92ZM46.45,108.91c-1.96-.35-2.07-.35-2.77-.58-.58-.12-.81-.12-2.65-.58V32.85h5.42v76.07ZM57.4,109.37c-.81.12-1.04.12-2.19.12-1.73,0-2.3,0-3.23-.12V32.85h5.42v76.53ZM68.34,107.64c-1.73.58-3.23.92-5.42,1.38V32.85h5.42v74.8ZM79.41,103.61c-1.73.81-2.77,1.27-5.53,2.54v-37.69h5.53v35.15Z"/>
        <path class="cls-1" d="M141.99,5.42c1.73-.12,3.11-.23,3.57-.23,6.57,0,10.95,3.8,10.95,9.68,0,4.03-2.19,6.91-6.91,9.22,5.99,1.27,9.22,5.07,9.22,10.72,0,4.38-2.42,8.07-6.22,9.57-1.73.69-3.8.92-7.61.92h-3.57c-1.96-.12-3.46-.12-4.61-.12h-6.68v-2.3l3.92-.69V8.64l-3.92-.69v-2.42h7.03l4.84-.12ZM130.35,104.07v-2.31l3.69-.69v-33.65l-3.69-.58v-2.54h13.25v2.42l-3.46.69v33.54l3.34.69v2.42h-13.14ZM142.69,23.05c4.96,0,7.26-2.54,7.26-7.95,0-4.61-2.42-7.38-6.57-7.38-1.15,0-1.96.12-3.57.69v14.64h2.88ZM139.8,41.95c1.15.69,1.96.92,3.57.92,5.42,0,8.76-3.34,8.76-8.76s-3.11-8.3-9.8-8.3h-2.54v16.14ZM161.82,104.07v-2.31l3-.58v-16.83c0-3.23-1.04-4.73-3.23-4.73-1.73,0-3.23.69-5.42,2.54v18.79l3,.69v2.42h-11.87v-2.31l3.34-.69v-20.98l-3.34-.46v-2.3l7.15-1.84h1.61v3.46c3.46-2.65,5.07-3.34,7.61-3.34,4.38,0,6.8,2.77,6.8,7.49v17.86l3,.69v2.42h-11.64ZM185.9,30.54c0,9.1-4.73,15.21-11.64,15.21s-11.06-5.76-11.06-14.18c0-8.99,4.73-15.21,11.64-15.21s11.06,5.65,11.06,14.18ZM169.31,31.35c0,7.38,1.84,11.53,5.07,11.53,3.46,0,5.3-4.38,5.3-13.02,0-6.91-1.84-10.72-5.07-10.72s-5.3,4.49-5.3,12.22ZM195.7,79.41c1.61,2.07,2.07,3.46,2.07,5.65,0,5.3-4.15,9.22-9.68,9.22-1.15,0-2.07-.12-3.11-.46-1.38.92-2.19,1.84-2.19,2.54s.69,1.04,2.42,1.15l6.91.35c5.42.23,7.95,2.3,7.95,6.57,0,6.11-5.42,10.03-13.71,10.03-6.22,0-10.26-2.31-10.26-5.88,0-2.31,1.15-3.8,4.49-5.99-2.31-.92-3.23-1.96-3.23-3.57,0-2.07,1.5-3.92,5.19-6.22-3.46-2.19-4.73-4.38-4.73-7.95,0-5.42,4.15-9.57,9.57-9.57,1.15,0,1.61.12,3.69.58,1.15.35,1.96.46,2.54.46.12,0,.58,0,1.04-.12h1.04l4.73-.12v3.34h-4.73ZM183.71,103.03c-1.5,1.38-2.07,2.54-2.07,4.26,0,2.54,2.31,4.03,6.11,4.03,4.73,0,8.3-1.96,8.3-4.73,0-2.42-1.27-2.88-10.14-3.46l-2.19-.12ZM183.95,84.59c0,4.84,1.15,7.03,3.92,7.03s3.92-2.19,3.92-6.45c0-5.07-1.38-7.49-4.15-7.49-2.54,0-3.69,2.19-3.69,6.91ZM195.93,30.66c.58,7.84,2.54,11.06,6.68,11.06,2.07,0,3.57-1.04,5.3-3.69l2.54,1.04c-2.88,5.19-4.96,6.68-9.45,6.68-6.91,0-10.83-4.96-10.83-13.95,0-9.57,4.03-15.33,10.72-15.33s9.57,4.61,9.68,14.18h-14.64ZM204.69,27.89c-.23-6.22-1.38-8.64-4.03-8.64s-4.03,2.65-4.73,8.64h8.76Z"/>
        <path class="cls-1" d="M209.3,89.43c.58,7.95,2.54,11.18,6.68,11.18,2.19,0,3.69-1.04,5.42-3.69l2.54,1.04c-2.65,4.96-5.07,6.68-9.57,6.68-6.92,0-10.83-5.19-10.83-14.06,0-9.57,4.03-15.21,10.72-15.21,4.61,0,7.61,2.42,8.99,6.91.46,1.5.58,3.34.81,7.15h-14.75ZM218.06,86.78c-.12-5.99-1.27-8.64-3.92-8.64s-4.15,2.54-4.84,8.64h8.76ZM228.44,45.18v-2.3l2.77-.58v-15.56c0-4.15-.92-5.65-3.34-5.65-1.73,0-3,.58-5.3,2.54v18.56l2.77.58v2.42h-11.76v-2.3l3.46-.69V7.03l-3.23-.69v-1.96l7.15-1.5h1.61v17.4c3.23-2.54,5.07-3.34,7.49-3.34,4.49,0,6.8,2.65,6.8,7.84v17.4l3,.58v2.42h-11.41ZM227.4,104.07v-2.31l3.34-.69v-35.5l-3.23-.35v-1.96l7.26-1.61h1.5v39.3l3.11.69v2.42h-11.99ZM257.94,104.07v-2.31l2.77-.58v-15.67c0-4.15-.92-5.65-3.34-5.65-1.61,0-3,.69-5.3,2.65v18.44l2.77.69v2.42h-11.64v-2.31l3.34-.69v-35.27l-3.23-.58v-1.96l7.26-1.61h1.5v17.52c3.11-2.54,4.96-3.34,7.61-3.34,4.26,0,6.68,2.65,6.68,7.38v17.75l3.11.69v2.42h-11.52ZM252.41,22.01c2.3-3.92,3.46-4.96,5.53-4.96s3.34,1.27,3.34,3.34c0,1.27-.69,2.3-2.19,3.46l-3-1.61c-1.96,1.04-3.57,3.23-3.57,4.84v15.1l4.03.58v2.42h-12.79v-2.3l3.34-.69v-21.21l-3.34-.58v-1.84l6.92-1.84h1.73v5.3ZM264.16,45.18v-2.3l3.11-.69v-20.75l-3.11-.69v-1.96l7.26-1.84h1.38v25.24l3.23.58v2.42h-11.87ZM273.27,6.57c0,2.07-1.61,3.69-3.69,3.69s-3.69-1.61-3.69-3.69,1.61-3.69,3.69-3.69,3.69,1.61,3.69,3.69ZM278.92,89.43c.58,7.95,2.54,11.18,6.68,11.18,2.19,0,3.69-1.04,5.42-3.69l2.53,1.04c-2.65,4.96-5.07,6.68-9.57,6.68-6.92,0-10.83-5.19-10.83-14.06,0-9.57,4.03-15.21,10.72-15.21,4.61,0,7.61,2.42,8.99,6.91.46,1.5.58,3.34.81,7.15h-14.75ZM287.68,86.78c-.12-5.99-1.27-8.64-3.92-8.64s-4.15,2.54-4.84,8.64h8.76Z"/>
        <path class="cls-1" d="M294.59,45.18v-2.3l3-.58v-16.83c0-3.23-1.04-4.73-3.23-4.73-1.73,0-3.23.69-5.42,2.54v18.79l3,.69v2.42h-11.87v-2.3l3.34-.69v-20.98l-3.34-.46v-2.31l7.15-1.84h1.61v3.46c3.46-2.65,5.07-3.34,7.61-3.34,4.38,0,6.8,2.77,6.8,7.49v17.86l3,.69v2.42h-11.64ZM298.17,104.07v-2.31l3.11-.69v-20.86l-3.11-.69v-1.84l7.26-1.84h1.38v25.12l3.23.69v2.42h-11.87ZM307.39,65.35c0,2.07-1.73,3.8-3.8,3.8s-3.69-1.61-3.69-3.69,1.73-3.8,3.92-3.8c1.96,0,3.57,1.73,3.57,3.69ZM328.36,20.51c1.61,2.07,2.07,3.46,2.07,5.65,0,5.3-4.15,9.22-9.68,9.22-1.15,0-2.07-.12-3.11-.46-1.38.92-2.19,1.84-2.19,2.42,0,.81.69,1.15,2.42,1.27l6.92.35c5.42.23,7.95,2.3,7.95,6.57,0,6.11-5.42,10.03-13.71,10.03-6.22,0-10.26-2.31-10.26-5.88,0-2.31,1.27-3.92,4.49-5.99-2.3-.92-3.23-2.07-3.23-3.69,0-1.96,1.5-3.8,5.19-6.11-3.46-2.19-4.73-4.38-4.73-7.95,0-5.42,4.15-9.57,9.57-9.57,1.15,0,1.61.12,3.69.58,1.15.35,1.96.46,2.54.46.12,0,.58,0,1.04-.12h1.04l4.73-.12v3.34h-4.73ZM343.23,104.07v-2.31l3.11-.69v-16.02c0-3.8-1.04-5.3-3.46-5.3-1.84,0-3.11.69-5.42,2.77v18.44l2.88.69v2.42h-11.64v-2.31l3.23-.69v-16.13c0-3.57-1.15-5.19-3.69-5.19-1.84,0-3.23.69-5.19,2.65v18.56l2.65.69v2.42h-11.76v-2.31l3.34-.69v-21.21l-3.34-.58v-1.96l7.26-1.84h1.5v3.8c2.88-2.42,5.07-3.34,7.84-3.34s4.84,1.15,6.45,3.69c3-2.77,4.96-3.8,7.95-3.8,4.96,0,7.03,2.42,7.03,8.18v16.94l3.23.69v2.42h-11.99ZM314.3,48.41c0,2.54,2.3,4.03,6.11,4.03,4.73,0,8.3-2.07,8.3-4.73s-.92-2.88-12.33-3.57c-1.5,1.38-2.07,2.54-2.07,4.26ZM316.61,25.7c0,4.84,1.15,7.03,3.92,7.03s3.92-2.19,3.92-6.45c0-5.07-1.38-7.49-4.15-7.49-2.54,0-3.69,2.19-3.69,6.92ZM342.08,30.66c.58,7.84,2.54,11.06,6.68,11.06,2.07,0,3.57-1.04,5.3-3.69l2.54,1.04c-2.88,5.19-4.96,6.68-9.45,6.68-6.92,0-10.83-4.96-10.83-13.95,0-9.57,4.03-15.33,10.72-15.33s9.57,4.61,9.68,14.18h-14.64ZM350.84,27.89c-.23-6.22-1.38-8.64-4.03-8.64s-4.03,2.65-4.73,8.64h8.76ZM370.08,22.01c2.3-3.92,3.46-4.96,5.53-4.96s3.34,1.27,3.34,3.34c0,1.27-.69,2.3-2.19,3.46l-3-1.61c-1.96,1.04-3.57,3.23-3.57,4.84v15.1l4.03.58v2.42h-12.79v-2.3l3.34-.69v-21.21l-3.34-.58v-1.84l6.92-1.84h1.73v5.3Z"/>
      </g>
    </g>
  </g>
</svg>