<?xml version="1.0" encoding="UTF-8"?>
<svg xmlns="http://www.w3.org/2000/svg" version="1.1" viewBox="0 0 336 336">
  <defs>
    <style>
      .cls-1 {
        fill: #fafaf9;
      }
    </style>
  </defs>
  <!-- Generator: Adobe Illustrator 28.7.1, SVG Export Plug-In . SVG Version: 1.2.0 Build 142)  -->
  <g>
    <g id="Layer_1">
      <path class="cls-1" d="M289.33,242.67c-10.08,0-19.36,3.27-26.99,8.71l-19.68-18.37v-79.75l-65.33-37.33v-23.52c21.3-4.32,37.33-23.16,37.33-45.73,0-25.77-20.89-46.67-46.67-46.67s-46.67,20.89-46.67,46.67c0,22.58,16.03,41.41,37.33,45.73v23.52l-65.33,37.33v79.75l-19.68,18.37c-7.63-5.44-16.91-8.71-26.99-8.71C20.89,242.67,0,263.56,0,289.33s20.89,46.67,46.67,46.67,46.67-20.89,46.67-46.67c0-8.93-2.64-17.18-6.98-24.27l20.13-18.79,61.52,35.15,61.52-35.15,20.13,18.79c-4.35,7.09-6.98,15.35-6.98,24.27,0,25.77,20.89,46.67,46.67,46.67s46.67-20.89,46.67-46.67-20.89-46.67-46.67-46.67ZM74.67,289.33c0,15.46-12.54,28-28,28s-28-12.54-28-28,12.54-28,28-28c4.65,0,8.97,1.24,12.84,3.25,5.67,2.95,10.24,7.69,12.81,13.57,1.5,3.43,2.35,7.2,2.35,11.18ZM140,46.67c0-15.46,12.54-28,28-28s28,12.54,28,28-12.54,28-28,28-28-12.54-28-28ZM168,259.92l-56-32v-63.83l56-32,56,32v63.83l-56,32ZM289.33,317.33c-15.46,0-28-12.54-28-28,0-3.98.85-7.75,2.35-11.17,2.57-5.89,7.14-10.63,12.82-13.58,3.86-2.01,8.18-3.25,12.83-3.25,15.46,0,28,12.54,28,28s-12.54,28-28,28Z"/>
    </g>
  </g>
</svg>